<svg xmlns="http://www.w3.org/2000/svg" xmlns:xlink="http://www.w3.org/1999/xlink" width="856.3pt" height="948.998" viewBox="0 0 856.3 711.749"><defs><path id="j" d="M3.176-6.633c-.508 0-.887.246-1.149.746-.257.5-.379 1.25-.379 2.25s.122 1.75.38 2.246c.261.5.64.75 1.148.75.511 0 .89-.25 1.152-.75q.377-.745.379-2.246-.002-1.5-.379-2.25c-.262-.5-.64-.746-1.152-.746m0-.781c.812 0 1.43.328 1.87.969.43.648.65 1.59.65 2.808 0 1.23-.22 2.168-.65 2.809-.44.637-1.058.957-1.878.957S1.73-.191 1.301-.828C.87-1.468.66-2.406.66-3.637c0-1.218.21-2.16.64-2.808.43-.64 1.058-.97 1.875-.97m0 0"/><path id="l" d="M1.238-.828h1.61v-5.559l-1.75.352v-.899l1.738-.351h.992v6.457h1.61V0h-4.2Zm0 0"/><path id="n" d="M1.918-.828h3.437V0H.73v-.828c.368-.383.88-.902 1.528-1.559.64-.652 1.05-1.07 1.219-1.261q.48-.523.66-.899a1.6 1.6 0 0 0 .191-.73c0-.38-.14-.7-.41-.938s-.621-.37-1.059-.37c-.312 0-.64.062-.98.16-.34.109-.711.269-1.098.491v-1a7.5 7.5 0 0 1 1.106-.359c.34-.082.66-.121.949-.121q1.126 0 1.8.57c.45.38.68.88.68 1.508 0 .3-.062.59-.171.848-.11.273-.31.59-.61.953-.078.098-.34.367-.777.816-.442.45-1.051 1.082-1.84 1.89m0 0"/><path id="p" d="M4.059-3.926q.704.148 1.097.63c.258.32.399.718.399 1.179 0 .719-.25 1.277-.739 1.668-.5.39-1.199.578-2.109.578-.309 0-.629-.027-.95-.09-.32-.05-.66-.14-1-.258v-.949c.27.16.571.277.903.36a4.2 4.2 0 0 0 1.02.12q.926 0 1.406-.363c.32-.238.492-.597.492-1.066 0-.422-.152-.762-.453-1-.297-.238-.719-.371-1.258-.371H2.02v-.809h.886c.48 0 .852-.09 1.11-.289q.39-.285.39-.84c0-.37-.14-.66-.398-.86-.27-.198-.653-.3-1.14-.3q-.405 0-.868.09a10 10 0 0 0-1.02.27v-.88c.368-.097.72-.18 1.047-.23.32-.047.63-.078.93-.078q1.107.002 1.77.508c.437.34.66.8.66 1.379 0 .402-.121.742-.352 1.02-.23.28-.558.48-.976.581m0 0"/><path id="r" d="M3.777-6.426 1.29-2.539h2.488Zm-.261-.86h1.242v4.747h1.039v.82h-1.04V0h-.98v-1.719H.488v-.949Zm0 0"/><path id="t" d="M1.078-7.285h3.867v.832H1.977v1.785c.14-.047.293-.09.43-.11.14-.019.292-.038.429-.038.812 0 1.45.23 1.93.668.48.453.718 1.05.718 1.808 0 .793-.25 1.402-.738 1.832S3.566.13 2.687.13c-.308 0-.62-.027-.937-.07a6 6 0 0 1-.98-.227v-.992q.432.24.91.36c.308.081.636.113.988.113.559 0 1.008-.141 1.34-.442.32-.3.488-.7.488-1.21 0-.497-.168-.9-.488-1.196q-.5-.451-1.34-.453c-.262 0-.531.031-.79.09a5 5 0 0 0-.8.27Zm0 0"/><path id="Z" d="M5.344-7.043v.957a6.3 6.3 0 0 0-1.059-.398 4 4 0 0 0-.957-.13c-.539 0-.96.11-1.25.31q-.432.315-.43.89c0 .316.09.566.29.726.19.172.558.301 1.101.403l.598.117c.73.14 1.27.39 1.617.742.351.36.531.828.531 1.418q-.001 1.06-.71 1.598-.715.54-2.079.539c-.348 0-.719-.04-1.11-.11A6.5 6.5 0 0 1 .689-.32V-1.34q.603.347 1.171.512c.38.117.758.168 1.137.168.563 0 .992-.11 1.3-.328.302-.223.462-.532.462-.95q-.002-.54-.332-.84-.328-.3-1.078-.449l-.602-.12c-.738-.141-1.266-.372-1.598-.688C.82-4.348.66-4.777.66-5.335c0-.642.219-1.15.68-1.52.45-.368 1.078-.56 1.879-.56.34 0 .68.032 1.039.09.347.06.707.16 1.086.282m0 0"/><path id="aa" d="M3.219.5c-.262.64-.512 1.07-.75 1.27-.242.199-.559.296-.961.296H.789V1.32h.531q.36-.002.567-.18c.14-.12.293-.39.46-.831l.16-.399L.302-5.465h.949l1.707 4.278 1.711-4.278h.95Zm0 0"/><path id="ab" d="M5.484-3.297V0h-.898v-3.266c0-.52-.11-.902-.309-1.16q-.3-.39-.898-.39c-.492 0-.871.16-1.152.468-.278.313-.418.73-.418 1.262V0H.91v-5.465h.899v.848c.21-.32.46-.57.757-.727.293-.16.633-.25 1.012-.25.617 0 1.098.2 1.418.586.32.39.488.961.488 1.711m0 0"/><path id="ac" d="M1.828-7.016v1.551h1.848v.7H1.828v2.968q0 .676.18.86c.12.128.37.187.75.187h.918V0h-.918Q1.708 0 1.32-.39.93-.778.93-1.798v-2.969H.27v-.699h.66v-1.55Zm0 0"/><path id="ad" d="M5.484-3.297V0h-.898v-3.266c0-.52-.11-.902-.309-1.16q-.3-.39-.898-.39c-.492 0-.871.16-1.152.468-.278.313-.418.73-.418 1.262V0H.91v-7.594h.899v2.977c.21-.32.46-.57.757-.727.293-.16.633-.25 1.012-.25.617 0 1.098.2 1.418.586.32.39.488.961.488 1.711m0 0"/><path id="ae" d="M5.617-2.957v.437H1.488c.04.622.219 1.102.559 1.422.332.317.789.477 1.39.477.34 0 .68-.04 1-.117.32-.082.649-.211.97-.39v.847c-.321.14-.65.25-.989.312-.34.059-.691.098-1.031.098-.88 0-1.567-.25-2.078-.75C.8-1.117.55-1.81.55-2.68Q.55-4.01 1.27-4.805c.48-.52 1.136-.789 1.957-.789.738 0 1.32.239 1.75.707.418.48.64 1.121.64 1.93m-.902-.262c-.008-.488-.149-.879-.41-1.176-.27-.293-.63-.44-1.067-.44-.5 0-.898.147-1.199.429-.3.281-.48.68-.52 1.187Zm0 0"/><path id="af" d="M.938-5.465h.902V0H.937Zm0-2.129h.902v1.14H.937Zm0 0"/><path id="ag" d="M4.875-5.254v.836a3.6 3.6 0 0 0-.77-.309 2.9 2.9 0 0 0-.77-.109c-.577 0-1.038.191-1.358.559-.317.37-.477.89-.477 1.55q0 1.002.477 1.559c.32.367.78.547 1.359.547.262 0 .512-.027.77-.098.261-.07.511-.18.769-.32v.828c-.258.121-.52.211-.777.262-.27.05-.563.078-.86.078-.82 0-1.48-.25-1.96-.77C.788-1.148.55-1.848.55-2.727c0-.89.238-1.59.726-2.097.493-.512 1.16-.77 2.02-.77q.421-.002.808.09c.262.059.52.137.77.25m0 0"/><path id="ai" d="M1.969-6.477v5.668h1.187c1 0 1.739-.218 2.211-.68.457-.46.7-1.179.7-2.16 0-.976-.243-1.687-.7-2.148-.472-.45-1.21-.68-2.21-.68ZM.98-7.285h2.028c1.41 0 2.449.3 3.105.879q.991.886.992 2.758c0 1.261-.34 2.18-1 2.77S4.406 0 3.008 0H.98Zm0 0"/><path id="aj" d="M3.426-2.746c-.727 0-1.227.09-1.508.25q-.42.252-.418.848c0 .32.098.578.309.757.21.192.5.282.859.282.5 0 .898-.172 1.2-.532q.449-.52.448-1.406v-.2Zm1.789-.371V0h-.899v-.828c-.21.34-.468.578-.77.726-.3.153-.679.23-1.116.23-.563 0-1.012-.148-1.34-.456C.758-.641.598-1.058.598-1.59c0-.61.203-1.066.62-1.387.41-.312 1.02-.468 1.84-.468h1.258v-.09c0-.41-.14-.73-.41-.961-.27-.219-.648-.34-1.136-.34-.32 0-.622.04-.922.121-.301.078-.578.188-.848.328v-.828a5.7 5.7 0 0 1 .95-.281c.308-.059.609-.098.91-.098q1.183.001 1.765.617c.39.41.59 1.032.59 1.86m0 0"/><path id="ak" d="M3.098-7.582a9.8 9.8 0 0 0-.97 2.227 7.7 7.7 0 0 0-.32 2.218c0 .758.102 1.5.32 2.227a9.4 9.4 0 0 0 .97 2.219h-.782C1.828.539 1.457-.2 1.22-.937a7.1 7.1 0 0 1-.36-2.2q0-1.078.36-2.187c.238-.742.601-1.489 1.097-2.258Zm0 0"/><path id="al" d="M4.426-5.305v.848a4.6 4.6 0 0 0-.79-.29 4 4 0 0 0-.847-.1q-.676 0-1.012.21a.68.68 0 0 0-.328.61c0 .21.078.37.238.492.16.117.481.238.961.336l.309.07c.64.14 1.09.34 1.36.582.261.25.398.598.398 1.04 0 .507-.2.91-.598 1.198-.398.297-.96.438-1.66.438-.297 0-.598-.027-.918-.078a6 6 0 0 1-1-.25v-.93q.499.27.98.39c.32.09.641.13.958.13q.633 0 .98-.211a.7.7 0 0 0 .34-.617c0-.243-.09-.43-.25-.563q-.24-.195-1.078-.379l-.309-.07c-.562-.117-.973-.297-1.21-.54q-.373-.356-.372-1c0-.507.18-.906.54-1.187q.543-.42 1.562-.418c.328 0 .636.028.937.078q.435.076.809.211m0 0"/><path id="am" d="M.8-7.582h.778c.48.77.852 1.516 1.09 2.258.238.738.371 1.469.371 2.187 0 .73-.133 1.457-.371 2.2-.238.738-.61 1.476-1.09 2.246H.801c.43-.75.746-1.477.969-2.22.207-.726.32-1.468.32-2.226 0-.75-.113-1.488-.32-2.218-.223-.73-.54-1.47-.97-2.227m0 0"/><path id="an" d="M.98-7.285h1.47l1.855 4.957 1.87-4.957h1.47V0h-.961v-6.395l-1.88 4.997h-.988L1.938-6.395V0H.98Zm0 0"/><path id="ao" d="M.98-7.285h.989V0H.98Zm0 0"/><path id="ap" d="M3.707-7.594v.75h-.86c-.32 0-.55.07-.667.2-.133.128-.192.359-.192.699v.48h1.48v.7h-1.48V0H1.09v-4.766H.23v-.699h.86v-.379c0-.601.14-1.05.418-1.332q.42-.417 1.351-.418Zm0 0"/><path id="aq" d="M4.105-4.625a1.1 1.1 0 0 0-.328-.133c-.12-.02-.25-.039-.39-.039-.508 0-.899.172-1.168.5-.281.332-.41.8-.41 1.418V0H.91v-5.465h.899v.848c.18-.328.43-.578.73-.738q.446-.24 1.11-.239c.058 0 .128.008.206.008.07.012.153.02.25.04Zm0 0"/><path id="ar" d="M4.535-4.637v-2.957h.902V0h-.902v-.82c-.187.332-.43.57-.719.718-.289.153-.628.23-1.027.23Q1.8.13 1.168-.647C.75-1.168.551-1.868.551-2.727s.199-1.55.617-2.078c.422-.52.96-.789 1.621-.789q.595-.001 1.027.239.437.239.72.718M1.48-2.727c0 .66.13 1.18.399 1.559.27.379.64.559 1.117.559.48 0 .852-.18 1.129-.559.27-.379.41-.898.41-1.559s-.14-1.171-.41-1.55a1.32 1.32 0 0 0-1.129-.57q-.714 0-1.117.57c-.27.379-.399.89-.399 1.55m0 0"/><path id="as" d="M.98-7.285h4.184v.832H1.97v2.148h2.886v.828H1.97V0H.98Zm0 0"/><path id="at" d="M1.098-.148v-.903q.363.182.75.27.375.094.75.094c.64 0 1.14-.211 1.48-.653.34-.437.54-1.097.598-1.996a2.1 2.1 0 0 1-.719.648 2.1 2.1 0 0 1-.96.22c-.74 0-1.317-.22-1.74-.66Q.63-3.785.63-4.939q0-1.106.66-1.796c.441-.45 1.027-.68 1.77-.68.84 0 1.488.328 1.925.969.442.648.672 1.59.672 2.808 0 1.16-.281 2.067-.82 2.746-.55.68-1.277 1.02-2.2 1.02-.25 0-.5-.027-.75-.07q-.385-.06-.788-.207m1.96-3.09c.438 0 .79-.149 1.047-.45q.392-.451.391-1.25c0-.519-.129-.937-.39-1.238-.258-.3-.61-.457-1.047-.457-.442 0-.79.156-1.051.457-.258.301-.39.719-.39 1.239q.002.797.39 1.25.392.45 1.05.449m0 0"/><path id="au" d="M7.266-3.207a.77.77 0 0 0-.672.36c-.16.238-.239.577-.239 1.007 0 .422.079.762.239 1 .16.242.39.36.672.36a.75.75 0 0 0 .656-.36c.16-.238.242-.578.242-1 0-.418-.082-.758-.242-.996-.16-.242-.379-.371-.656-.371m0-.621c.507 0 .918.18 1.218.539.297.363.457.852.457 1.45 0 .609-.16 1.089-.457 1.44-.3.36-.71.528-1.218.528-.52 0-.942-.168-1.243-.527-.296-.352-.449-.832-.449-1.442s.153-1.086.45-1.45c.3-.358.722-.538 1.242-.538m-5.04-2.965c-.277 0-.496.129-.656.367q-.241.362-.242.989c0 .44.082.769.242 1.011q.24.36.657.36a.77.77 0 0 0 .671-.36c.16-.242.239-.57.239-1.011 0-.418-.09-.747-.25-.989-.16-.238-.38-.367-.66-.367m4.407-.621h.781L2.86.129h-.78Zm-4.406 0q.767 0 1.23.539c.3.36.461.84.461 1.438 0 .62-.16 1.101-.461 1.46-.3.36-.71.532-1.23.532S1.3-3.617 1-3.977c-.3-.359-.45-.84-.45-1.46q0-.898.45-1.438.448-.54 1.227-.54m0 0"/><path id="av" d="M6.434-6.723v1.04a3.9 3.9 0 0 0-1.067-.692 3.2 3.2 0 0 0-1.191-.23c-.84 0-1.477.261-1.918.77-.438.51-.66 1.237-.66 2.198 0 .957.222 1.7.66 2.207.441.512 1.078.762 1.918.762.422 0 .808-.07 1.191-.23a3.5 3.5 0 0 0 1.067-.692v1.031c-.348.239-.72.41-1.098.52s-.79.168-1.219.168c-1.101 0-1.969-.328-2.61-1C.872-1.54.56-2.457.56-3.637c0-1.168.312-2.09.949-2.77.64-.667 1.508-1.007 2.61-1.007q.657.001 1.226.172c.383.117.75.289 1.09.52m0 0"/><path id="aw" d="M4.867-2.727c0-.66-.14-1.171-.41-1.55-.281-.38-.648-.57-1.121-.57q-.714 0-1.117.57c-.281.379-.41.89-.41 1.55s.129 1.18.41 1.559c.27.379.64.559 1.117.559.473 0 .84-.18 1.121-.559.27-.379.41-.898.41-1.559M1.81-4.637q.271-.479.71-.718.435-.24 1.04-.239c.656 0 1.199.27 1.617.79.41.527.62 1.218.62 2.077 0 .86-.21 1.559-.62 2.079-.418.52-.961.777-1.617.777q-.605-.001-1.04-.23a1.66 1.66 0 0 1-.71-.72V0H.91v-7.594h.899Zm0 0"/><path id="ax" d="M.938-7.594h.902V0H.937Zm0 0"/><path id="ay" d="M.3-5.465h.95L2.957-.879l1.711-4.586h.95L3.565 0H2.348Zm0 0"/><path id="aD" d="M3.297-4.035c-.438 0-.79.16-1.047.457-.262.3-.39.719-.39 1.238q-.002.798.39 1.25c.258.3.61.45 1.047.45q.66 0 1.05-.45.387-.452.387-1.25c0-.52-.129-.937-.386-1.238-.262-.297-.61-.457-1.051-.457m1.957-3.09v.898a4 4 0 0 0-.746-.27 3.4 3.4 0 0 0-.75-.089c-.66 0-1.16.223-1.5.66-.34.442-.54 1.11-.578 1.989.187-.278.43-.5.718-.649.29-.148.61-.23.957-.23.73 0 1.313.23 1.73.668.419.441.642 1.05.642 1.808 0 .75-.23 1.352-.672 1.8-.438.45-1.028.669-1.758.669-.84 0-1.488-.32-1.93-.957C.918-1.468.7-2.406.7-3.637c0-1.148.27-2.07.82-2.75.54-.676 1.278-1.027 2.2-1.027.238 0 .488.031.746.07.25.051.512.121.789.219m0 0"/><path id="aF" d="M3.176-3.457c-.469 0-.836.129-1.11.379-.27.25-.398.59-.398 1.031 0 .438.129.79.398 1.04.274.25.641.366 1.11.366.46 0 .832-.117 1.101-.379.27-.25.41-.59.41-1.027 0-.441-.14-.781-.402-1.031-.27-.25-.637-.379-1.11-.379m-.989-.418c-.417-.102-.75-.3-.988-.59-.238-.293-.351-.64-.351-1.062 0-.578.203-1.04.62-1.38.41-.335.981-.507 1.708-.507.722 0 1.289.172 1.71.508q.617.51.618 1.379c0 .422-.117.77-.36 1.062-.238.29-.558.488-.976.59q.704.167 1.11.648c.257.32.398.72.398 1.18Q5.674-.987 5.027-.43C4.586-.05 3.965.13 3.168.13c-.8 0-1.418-.18-1.848-.559C.89-.8.68-1.34.68-2.047c0-.46.129-.86.398-1.18.262-.32.629-.539 1.11-.648m-.359-1.562c0 .382.11.68.352.89.238.211.566.309.996.309.422 0 .75-.098.992-.309q.359-.316.36-.89c0-.38-.122-.668-.36-.88-.242-.206-.57-.316-.992-.316-.43 0-.758.11-.996.317-.243.21-.352.5-.352.878m0 0"/><path id="aI" d="M-.02-7.285h6.157v.832h-2.59V0h-.988v-6.453H-.02Zm0 0"/><path id="aJ" d="M5.195-4.418c.22-.398.489-.687.801-.887q.464-.288 1.11-.289.838 0 1.308.598c.309.398.469.969.469 1.7V0h-.899v-3.266c0-.52-.101-.91-.28-1.171-.188-.25-.47-.38-.849-.38-.468 0-.84.16-1.109.47q-.404.466-.402 1.261V0h-.899v-3.266c0-.52-.097-.91-.277-1.171-.191-.25-.48-.38-.86-.38-.46 0-.831.16-1.101.47-.27.312-.398.73-.398 1.261V0H.91v-5.465h.899v.848c.199-.328.449-.578.738-.738q.422-.24 1.02-.239c.398 0 .73.098 1.011.297.277.2.477.5.617.879m0 0"/><path id="aR" d="M.82-7.285h4.684v.422L2.859 0H1.83l2.487-6.453H.82Zm0 0"/><path id="bd" d="M1.969-3.477v2.668h1.578c.531 0 .918-.109 1.18-.332.25-.218.378-.546.378-1.007 0-.45-.128-.778-.378-1-.262-.22-.649-.329-1.18-.329Zm0-3v2.2h1.457c.48 0 .832-.09 1.07-.27s.36-.45.36-.828c0-.36-.122-.64-.36-.82s-.59-.282-1.07-.282ZM.98-7.285h2.516q1.124.002 1.738.473c.403.316.61.757.61 1.328 0 .449-.11.808-.317 1.066-.21.262-.511.43-.91.492.48.11.86.328 1.13.66.257.329.398.739.398 1.227 0 .66-.23 1.16-.668 1.508-.442.363-1.07.531-1.88.531H.98Zm0 0"/><path id="be" d="M3.059-4.836q-.72 0-1.141.57c-.281.38-.418.887-.418 1.54 0 .66.129 1.167.41 1.546.278.38.656.559 1.149.559.476 0 .859-.18 1.136-.559.282-.379.422-.886.422-1.547 0-.64-.14-1.16-.422-1.539a1.34 1.34 0 0 0-1.136-.57m0-.758c.777 0 1.386.258 1.836.758.44.508.671 1.207.671 2.11 0 .898-.23 1.597-.671 2.097-.45.508-1.06.758-1.836.758-.79 0-1.41-.25-1.848-.758q-.66-.75-.66-2.098c0-.902.219-1.601.66-2.109.437-.5 1.059-.758 1.848-.758m0 0"/><path id="u" d="M-6.477-1.969h5.668v-1.187c0-1-.218-1.739-.68-2.211-.46-.457-1.179-.7-2.16-.7-.976 0-1.687.243-2.148.7-.45.472-.68 1.21-.68 2.21Zm-.808.989v-2.028c0-1.41.3-2.449.879-3.105q.886-.991 2.758-.992c1.261 0 2.18.34 2.77 1S0-4.406 0-3.008V-.98Zm0 0"/><path id="v" d="M-2.746-3.426c0 .727.09 1.227.25 1.508q.252.42.848.418c.32 0 .578-.098.757-.309.192-.21.282-.5.282-.859 0-.5-.172-.898-.532-1.2q-.52-.449-1.406-.448h-.2Zm-.371-1.789H0v.899h-.828c.34.21.578.468.726.77.153.3.23.679.23 1.116 0 .563-.148 1.012-.456 1.34-.313.332-.73.492-1.262.492-.61 0-1.066-.203-1.387-.62-.312-.41-.468-1.02-.468-1.84v-1.258h-.09c-.41 0-.73.14-.961.41-.219.27-.34.648-.34 1.136 0 .32.04.622.121.922.078.301.188.578.328.848h-.828a5.7 5.7 0 0 1-.281-.95 5 5 0 0 1-.098-.91q.001-1.183.617-1.765c.41-.39 1.032-.59 1.86-.59m0 0"/><path id="w" d="M-5.465-.937v-.903H0v.903Zm-2.129 0v-.903h1.14v.903Zm0 0"/><path id="x" d="M-7.594-.937v-.903H0v.903Zm0 0"/><path id="y" d="M.5-3.219c.64.262 1.07.512 1.27.75.199.242.296.559.296.961v.719H1.32v-.531q-.002-.36-.18-.567c-.12-.14-.39-.293-.831-.46l-.399-.16-5.375 2.206v-.949l4.278-1.707-4.278-1.711v-.95Zm0 0"/><path id="A" d="M-2.957-5.617h.437v4.129c.622-.04 1.102-.219 1.422-.559.317-.332.477-.789.477-1.39 0-.34-.04-.68-.117-1a4 4 0 0 0-.39-.97h.847c.14.321.25.65.312.989.059.34.098.691.098 1.031 0 .88-.25 1.567-.75 2.078C-1.117-.8-1.81-.55-2.68-.55Q-4.01-.55-4.805-1.27c-.52-.48-.789-1.136-.789-1.957 0-.738.239-1.32.707-1.75.48-.418 1.121-.64 1.93-.64m-.262.902c-.488.008-.879.149-1.176.41-.293.27-.44.63-.44 1.067 0 .5.147.898.429 1.199.281.3.68.48 1.187.52Zm0 0"/><path id="B" d="M-7.016-1.828h1.551v-1.848h.7v1.848h2.968q.676 0 .86-.18c.128-.12.187-.37.187-.75v-.918H0v.918q0 1.05-.39 1.438-.387.39-1.407.39h-2.969v.66h-.699v-.66h-1.55Zm0 0"/><path id="C" d="M-3.297-5.484H0v.898h-3.266c-.52 0-.902.11-1.16.309q-.39.3-.39.898c0 .492.16.871.468 1.152.313.278.73.418 1.262.418H0v.899h-7.594v-.899h2.977c-.32-.21-.57-.46-.727-.757a2.1 2.1 0 0 1-.25-1.012c0-.617.2-1.098.586-1.418.39-.32.961-.488 1.711-.488m0 0"/><path id="D" d="M-5.305-4.426h.848q-.183.386-.29.79a4 4 0 0 0-.1.847q0 .676.21 1.012c.14.218.34.328.61.328.21 0 .37-.078.492-.238.117-.16.238-.481.336-.961l.07-.309c.14-.64.34-1.09.582-1.36.25-.261.598-.398 1.04-.398.507 0 .91.2 1.198.598.297.398.438.96.438 1.66 0 .297-.027.598-.078.918s-.13.648-.25 1h-.93q.27-.499.39-.98c.09-.32.13-.641.13-.958q0-.633-.211-.98a.7.7 0 0 0-.617-.34c-.243 0-.43.09-.563.25q-.195.24-.379 1.078l-.07.309c-.117.562-.297.973-.54 1.21q-.356.373-1 .372c-.507 0-.906-.18-1.187-.54q-.42-.542-.418-1.562c0-.328.028-.636.078-.937q.076-.435.211-.809m0 0"/><path id="aS" d="M-3.207-7.266c0 .282.121.512.36.672.238.16.577.239 1.007.239.422 0 .762-.079 1-.239.242-.16.36-.39.36-.672a.75.75 0 0 0-.36-.656c-.238-.16-.578-.242-1-.242-.418 0-.758.082-.996.242-.242.16-.371.379-.371.656m-.621 0c0-.507.18-.918.539-1.218.363-.297.852-.457 1.45-.457.609 0 1.089.16 1.44.457.36.3.528.71.528 1.218 0 .52-.168.942-.527 1.243-.352.296-.832.449-1.442.449s-1.086-.153-1.45-.45c-.358-.3-.538-.722-.538-1.242m-2.965 5.04c0 .277.129.496.367.656q.362.241.989.242c.44 0 .769-.082 1.011-.242a.75.75 0 0 0 .36-.657.77.77 0 0 0-.36-.671c-.242-.16-.57-.239-1.011-.239-.418 0-.747.09-.989.25-.238.16-.367.38-.367.66m-.621-4.407v-.781L.129-2.86v.78Zm0 4.406q0-.767.539-1.23c.36-.3.84-.461 1.438-.461.62 0 1.101.16 1.46.461.36.3.532.71.532 1.23S-3.617-1.3-3.977-1c-.359.3-.84.45-1.46.45q-.898 0-1.438-.45-.54-.448-.54-1.227m0 0"/><path id="aT" d="M-4.836-3.059q0 .72.57 1.141c.38.281.887.418 1.54.418.66 0 1.167-.129 1.546-.41.38-.278.559-.656.559-1.149 0-.476-.18-.859-.559-1.136-.379-.282-.886-.422-1.547-.422-.64 0-1.16.14-1.539.422a1.34 1.34 0 0 0-.57 1.136m-.758 0c0-.777.258-1.386.758-1.836.508-.44 1.207-.671 2.11-.671.898 0 1.597.23 2.097.671.508.45.758 1.06.758 1.836 0 .79-.25 1.41-.758 1.848q-.75.66-2.098.66c-.902 0-1.601-.219-2.109-.66-.5-.437-.758-1.059-.758-1.848m0 0"/><path id="aU" d="M-7.594-3.707h.75v.86c0 .32.07.55.2.667.128.133.359.192.699.192h.48v-1.48h.7v1.48H0v.898h-4.766v.86h-.699v-.86h-.379c-.601 0-1.05-.14-1.332-.418q-.417-.42-.418-1.351Zm0 0"/><path id="aV" d="M-6.477-1.969h2.739v-1.238c0-.461-.11-.809-.348-1.059q-.363-.377-1.02-.379c-.44 0-.769.13-1.007.38-.242.25-.364.597-.364 1.058Zm-.808.989v-2.227c0-.809.191-1.43.562-1.848q.552-.631 1.618-.629c.718 0 1.27.207 1.628.63.368.417.551 1.038.551 1.847v1.238H0v.989Zm0 0"/><path id="aW" d="M-.82-1.809h2.886v.899h-7.53v-.899h.827a1.8 1.8 0 0 1-.718-.71q-.24-.435-.239-1.04c0-.656.27-1.199.79-1.617.527-.41 1.218-.62 2.077-.62.86 0 1.559.21 2.079.62.52.418.777.961.777 1.617q-.001.605-.23 1.04a1.66 1.66 0 0 1-.72.71m-1.907-3.058c-.66 0-1.171.14-1.55.41-.38.281-.57.648-.57 1.121q0 .714.57 1.117c.379.281.89.41 1.55.41s1.18-.129 1.559-.41c.379-.27.559-.64.559-1.117 0-.473-.18-.84-.559-1.121-.379-.27-.898-.41-1.559-.41m0 0"/><path id="aX" d="M-2.16-.848h-3.305v-.902h3.278c.519 0 .898-.098 1.16-.297.257-.203.386-.5.386-.91 0-.48-.148-.871-.457-1.148-.312-.282-.73-.422-1.27-.422h-3.097v-.899H0v.899h-.84c.34.222.578.48.738.761.153.29.23.618.23.996 0 .633-.187 1.11-.577 1.43-.38.332-.95.492-1.711.492m-3.434-2.261"/><path id="aY" d="M-3.297-5.484H0v.898h-3.266c-.52 0-.902.11-1.16.309q-.39.3-.39.898c0 .492.16.871.468 1.152.313.278.73.418 1.262.418H0v.899h-5.465v-.899h.848c-.32-.21-.57-.46-.727-.757a2.1 2.1 0 0 1-.25-1.012c0-.617.2-1.098.586-1.418.39-.32.961-.488 1.711-.488m0 0"/><path id="aZ" d="M-7.043-5.344h.957c-.18.38-.309.727-.398 1.059-.082.34-.13.656-.13.957 0 .539.11.96.31 1.25q.315.432.89.43c.316 0 .566-.09.726-.29.172-.19.301-.558.403-1.101l.117-.598c.14-.73.39-1.27.742-1.617.36-.351.828-.531 1.418-.531q1.06.001 1.598.71.54.715.539 2.079c0 .348-.04.719-.11 1.11-.07.386-.18.788-.34 1.199H-1.34q.347-.604.512-1.172c.117-.38.168-.758.168-1.137 0-.563-.11-.992-.328-1.3-.223-.302-.532-.462-.95-.462q-.54.002-.84.332-.3.328-.449 1.078l-.12.602c-.141.738-.372 1.266-.688 1.598-.313.328-.742.488-1.3.488-.642 0-1.15-.219-1.52-.68-.368-.45-.56-1.078-.56-1.879 0-.34.032-.68.09-1.039.06-.347.16-.707.282-1.086m0 0"/><path id="ba" d="M-.828-1.918v-3.437H0V-.73h-.828a164 164 0 0 1-1.559-1.528c-.652-.64-1.07-1.05-1.261-1.219q-.523-.48-.899-.66a1.6 1.6 0 0 0-.73-.191c-.38 0-.7.14-.938.41s-.37.621-.37 1.059c0 .312.062.64.16.98.109.34.269.711.491 1.098h-1a7.5 7.5 0 0 1-.359-1.106 4 4 0 0 1-.121-.949q0-1.126.57-1.8c.38-.45.88-.68 1.508-.68.3 0 .59.062.848.171.273.11.59.31.953.61.098.078.367.34.816.777.45.442 1.082 1.051 1.89 1.84m0 0"/><path id="E" d="M2.363-7.77v3.286h1.485c.554 0 .972-.133 1.273-.418.297-.29.453-.696.453-1.227 0-.527-.156-.922-.453-1.21-.3-.286-.719-.43-1.273-.43Zm-1.187-.972h2.672c.972 0 1.715.23 2.218.672q.757.668.758 1.941c0 .863-.254 1.524-.758 1.957-.503.442-1.246.66-2.218.66H2.363V0H1.176Zm0 0"/><path id="F" d="M4.113-3.297c-.875 0-1.476.11-1.812.3-.336.204-.504.54-.504 1.02 0 .383.121.696.375.91.25.227.598.337 1.031.337.598 0 1.078-.204 1.438-.637.359-.418.539-.985.539-1.692v-.238Zm2.145-.445V0H5.18v-.996c-.25.41-.563.695-.922.875S3.44.156 2.914.156c-.672 0-1.21-.18-1.605-.55C.91-.767.719-1.27.719-1.907c0-.73.242-1.281.742-1.668.492-.371 1.227-.563 2.207-.563H5.18v-.11c0-.487-.168-.874-.492-1.148-.325-.265-.778-.41-1.368-.41-.382 0-.742.051-1.101.145-.36.098-.696.23-1.02.394v-.992a7 7 0 0 1 1.14-.336c.372-.074.731-.12 1.09-.12.946 0 1.653.253 2.122.741q.705.742.707 2.23m0 0"/><path id="G" d="M4.93-5.55a1.4 1.4 0 0 0-.399-.157 3 3 0 0 0-.465-.047c-.613 0-1.082.203-1.406.598-.336.394-.488.96-.488 1.703V0H1.09v-6.559h1.082v1.02c.215-.395.515-.695.875-.887.36-.191.8-.289 1.328-.289.074 0 .156.012.254.012.082.012.18.023.3.047Zm0 0"/><path id="H" d="M6.234-5.3c.266-.477.59-.829.961-1.067.371-.227.813-.348 1.328-.348.672 0 1.2.238 1.575.719.37.48.562 1.164.562 2.039V0H9.582v-3.922c0-.621-.121-1.09-.336-1.402-.23-.301-.566-.453-1.02-.453-.566 0-1.007.191-1.331.562s-.48.875-.48 1.512V0h-1.08v-3.922c0-.621-.12-1.09-.335-1.402-.227-.301-.574-.453-1.031-.453-.551 0-.996.191-1.32.562s-.477.875-.477 1.512V0H1.09v-6.559h1.082v1.02c.238-.395.539-.695.887-.887q.503-.288 1.222-.289c.48 0 .875.121 1.211.36.336.242.574.601.742 1.054m0 0"/><path id="I" d="M6.738-3.55v.527H1.785c.05.746.266 1.32.672 1.703.398.386.95.578 1.668.578.406 0 .816-.051 1.2-.145a5 5 0 0 0 1.163-.468v1.02c-.386.167-.781.3-1.187.37-.41.074-.828.121-1.235.121-1.058 0-1.882-.3-2.496-.898-.61-.602-.91-1.43-.91-2.473 0-1.066.285-1.918.863-2.55.575-.626 1.368-.95 2.348-.95.89 0 1.586.29 2.102.852.504.574.765 1.343.765 2.312M5.66-3.86c-.012-.59-.18-1.054-.492-1.417-.324-.348-.754-.528-1.281-.528-.602 0-1.082.18-1.442.516s-.574.816-.62 1.43Zm0 0"/><path id="J" d="M2.195-8.418v1.86h2.22v.84h-2.22v3.558c0 .543.07.89.215 1.031.145.156.445.23.899.23h1.105V0H3.31Q2.05 0 1.582-.469q-.469-.467-.469-1.691V-5.72H.324v-.84h.79v-1.859Zm0 0"/><path id="L" d="M5.324-4.102c.25.098.504.278.742.551.243.29.48.672.72 1.164L7.983 0h-1.27L5.599-2.242c-.285-.574-.575-.973-.836-1.164q-.416-.287-1.117-.285H2.363V0H1.176v-8.742h2.672c.996 0 1.738.219 2.23.625.492.418.746 1.055.746 1.894 0 .551-.133 1.02-.386 1.38-.262.359-.633.609-1.114.741M2.364-7.77v3.106h1.484q.85-.001 1.285-.395c.285-.265.441-.648.441-1.164 0-.504-.156-.886-.441-1.152q-.436-.394-1.285-.395Zm0 0"/><path id="M" d="M5.852-6.309V-5.3a4.4 4.4 0 0 0-.922-.37 3.6 3.6 0 0 0-.926-.134c-.695 0-1.246.23-1.629.672q-.576.67-.578 1.86.002 1.204.578 1.87c.383.442.934.66 1.629.66.312 0 .613-.038.926-.12.308-.082.61-.215.922-.383v.996a4.2 4.2 0 0 1-.938.309c-.32.062-.668.097-1.027.097-.985 0-1.778-.3-2.352-.922C.945-1.379.66-2.219.66-3.273c0-1.067.285-1.907.875-2.52.586-.61 1.39-.922 2.422-.922q.504-.001.973.11c.308.07.62.168.922.296m0 0"/><path id="N" d="M3.668-5.805q-.862.001-1.367.684c-.336.457-.504 1.07-.504 1.848 0 .793.156 1.402.492 1.859.336.453.793.672 1.379.672.578 0 1.031-.219 1.367-.672.336-.457.504-1.066.504-1.86 0-.765-.168-1.39-.504-1.847-.336-.453-.789-.684-1.367-.684m0-.91c.937 0 1.668.313 2.207.91.527.614.805 1.453.805 2.532s-.278 1.918-.805 2.52c-.54.608-1.27.91-2.207.91-.945 0-1.691-.302-2.219-.91Q.66-1.657.66-3.274c0-1.079.262-1.918.79-2.532.527-.597 1.273-.91 2.218-.91m0 0"/><path id="O" d="M.36-6.559H1.5l2.05 5.504 2.048-5.504h1.14L4.281 0H2.816Zm0 0"/><path id="P" d="M3.86.598c-.31.77-.61 1.285-.9 1.523q-.43.361-1.151.36H.945v-.899h.637q.434.001.684-.215c.168-.144.347-.469.55-.996l.192-.48L.359-6.56H1.5l2.05 5.133 2.048-5.133h1.14Zm0 0"/><path id="Q" d="M1.176-8.742h5.023v.996H2.363v2.578h3.465v.996H2.363V0H1.176Zm0 0"/><path id="R" d="M1.129-6.559h1.078V0H1.129Zm0-2.554h1.078v1.367H1.129Zm0 0"/><path id="S" d="M6.414-8.453v1.152a7.5 7.5 0 0 0-1.27-.48 5 5 0 0 0-1.152-.157c-.648 0-1.152.133-1.5.372-.347.253-.515.613-.515 1.066 0 .387.109.684.347.875.23.207.672.36 1.32.48l.72.145c.874.168 1.523.469 1.945.887.418.433.632.996.632 1.703Q6.94-1.135 6.09-.492 5.23.157 3.598.156c-.422 0-.864-.047-1.332-.133A7.5 7.5 0 0 1 .828-.383v-1.222q.718.41 1.402.609c.458.144.91.203 1.368.203.672 0 1.187-.129 1.558-.394.36-.262.551-.637.551-1.137q-.001-.651-.394-1.008-.397-.363-1.297-.54l-.72-.144q-1.328-.253-1.917-.828C.984-5.214.793-5.73.793-6.402c0-.77.262-1.38.812-1.825.54-.441 1.297-.671 2.254-.671.41 0 .817.039 1.25.109.418.07.852.191 1.305.336m0 0"/><path id="T" d="M6.582-3.957V0H5.504v-3.922c0-.621-.133-1.078-.371-1.39-.242-.313-.602-.465-1.082-.465-.586 0-1.043.191-1.38.562q-.498.556-.5 1.512V0H1.09v-6.559h1.082v1.02c.25-.383.55-.684.91-.875.348-.191.754-.3 1.211-.3.742 0 1.32.237 1.703.706s.586 1.153.586 2.051m0 0"/><path id="U" d="M6.582-3.957V0H5.504v-3.922c0-.621-.133-1.078-.371-1.39-.242-.313-.602-.465-1.082-.465-.586 0-1.043.191-1.38.562q-.498.556-.5 1.512V0H1.09v-9.113h1.082v3.574c.25-.383.55-.684.91-.875.348-.191.754-.3 1.211-.3.742 0 1.32.237 1.703.706s.586 1.153.586 2.051m0 0"/><path id="V" d="M1.176-8.742h1.762l2.23 5.949 2.242-5.95h1.762V0H8.02v-7.672L5.766-1.68H4.582L2.324-7.672V0H1.176Zm0 0"/><path id="W" d="M1.129-9.113h1.078V0H1.129Zm0 0"/><path id="X" d="M2.363-7.77v6.797H3.79c1.2 0 2.086-.261 2.649-.812.554-.555.84-1.418.84-2.59 0-1.176-.286-2.027-.84-2.578-.563-.54-1.45-.817-2.649-.817Zm-1.187-.972h2.433c1.692 0 2.938.36 3.73 1.055q1.185 1.063 1.184 3.312c0 1.508-.406 2.613-1.199 3.32C6.535-.348 5.29 0 3.61 0H1.176Zm0 0"/><path id="bb" d="M2.363-4.172v3.2h1.895c.633 0 1.101-.13 1.414-.395.3-.262.457-.66.457-1.211 0-.54-.156-.934-.457-1.2-.313-.261-.781-.394-1.414-.394Zm0-3.598v2.637h1.75c.574 0 .996-.105 1.282-.324.289-.215.433-.54.433-.992 0-.434-.144-.77-.433-.985-.286-.214-.707-.336-1.282-.336Zm-1.187-.972h3.02q1.353.002 2.085.566c.48.383.735.91.735 1.594 0 .539-.133.969-.387 1.281-.25.313-.61.516-1.09.59.574.129 1.031.395 1.356.79.312.398.48.886.48 1.476 0 .789-.277 1.39-.805 1.808C6.043-.203 5.29 0 4.316 0h-3.14Zm0 0"/><clipPath id="a"><path d="M0 .164h855.602v711.168H0Zm0 0"/></clipPath><clipPath id="b"><path d="M82 22.473h2v310.855h-2Zm0 0"/></clipPath><clipPath id="c"><path d="M202 22.473h2v310.855h-2Zm0 0"/></clipPath><clipPath id="d"><path d="M321 22.473h2v310.855h-2Zm0 0"/></clipPath><clipPath id="e"><path d="M441 22.473h2v310.855h-2Zm0 0"/></clipPath><clipPath id="f"><path d="M560 22.473h2v310.855h-2Zm0 0"/></clipPath><clipPath id="g"><path d="M680 22.473h1v310.855h-1Zm0 0"/></clipPath><clipPath id="h"><path d="M799 22.473h2v310.855h-2Zm0 0"/></clipPath><clipPath id="i"><path d="M46.91 318h801.496v2H46.91Zm0 0"/></clipPath><clipPath id="k"><path d="M46.91 261h801.496v2H46.91Zm0 0"/></clipPath><clipPath id="m"><path d="M46.91 204h801.496v2H46.91Zm0 0"/></clipPath><clipPath id="o"><path d="M46.91 147h801.496v2H46.91Zm0 0"/></clipPath><clipPath id="q"><path d="M46.91 90h801.496v2H46.91Zm0 0"/></clipPath><clipPath id="s"><path d="M46.91 33h801.496v2H46.91Zm0 0"/></clipPath><clipPath id="Y"><path d="M672 13h183.602v76H672Zm0 0"/></clipPath><clipPath id="az"><path d="M82 362.965h2V673.82h-2Zm0 0"/></clipPath><clipPath id="aA"><path d="M202 362.965h2V673.82h-2Zm0 0"/></clipPath><clipPath id="aB"><path d="M321 362.965h2V673.82h-2Zm0 0"/></clipPath><clipPath id="aC"><path d="M441 362.965h2V673.82h-2Zm0 0"/></clipPath><clipPath id="aE"><path d="M560 362.965h2V673.82h-2Zm0 0"/></clipPath><clipPath id="aG"><path d="M680 362.965h1V673.82h-1Zm0 0"/></clipPath><clipPath id="aH"><path d="M799 362.965h2V673.82h-2Zm0 0"/></clipPath><clipPath id="aK"><path d="M46.91 633h801.496v2H46.91Zm0 0"/></clipPath><clipPath id="aL"><path d="M46.91 591h801.496v2H46.91Zm0 0"/></clipPath><clipPath id="aM"><path d="M46.91 550h801.496v2H46.91Zm0 0"/></clipPath><clipPath id="aN"><path d="M46.91 508h801.496v2H46.91Zm0 0"/></clipPath><clipPath id="aO"><path d="M46.91 467h801.496v1H46.91Zm0 0"/></clipPath><clipPath id="aP"><path d="M46.91 425h801.496v2H46.91Zm0 0"/></clipPath><clipPath id="aQ"><path d="M46.91 383h801.496v2H46.91Zm0 0"/></clipPath><clipPath id="bc"><path d="M663 353h192.602v77H663Zm0 0"/></clipPath></defs><g clip-path="url(#a)"><path fill="#fff" d="M0 711.332h855.602V.164H0Zm0 0"/></g><path fill="#fff" d="M46.91 333.328h801.496V22.473H46.91Zm0 0"/><path stroke="#000" stroke-linejoin="round" stroke-miterlimit="10" stroke-width=".99918" d="M83.344 321.133a1.934 1.934 0 0 0 1.367-3.305 1.95 1.95 0 0 0-1.367-.566 1.936 1.936 0 0 0 0 3.871ZM89.316 321.133a1.934 1.934 0 0 0 1.368-3.305 1.95 1.95 0 0 0-1.368-.566 1.937 1.937 0 0 0 0 3.87ZM95.29 321.133a1.934 1.934 0 0 0 1.366-3.305 1.934 1.934 0 0 0-2.738 0c-.36.363-.566.856-.566 1.371a1.936 1.936 0 0 0 1.937 1.934ZM101.262 321.133a1.934 1.934 0 0 0 1.367-3.305 1.934 1.934 0 0 0-2.738 0 1.95 1.95 0 0 0-.567 1.367 1.936 1.936 0 0 0 1.937 1.937ZM107.234 321.133a1.938 1.938 0 0 0 1.368-3.305 1.934 1.934 0 0 0-2.739 0 1.934 1.934 0 0 0 0 2.734c.364.364.856.57 1.371.57ZM113.207 321.129a1.934 1.934 0 0 0 1.367-3.305 1.95 1.95 0 0 0-1.367-.566 1.936 1.936 0 1 0 0 3.871ZM119.176 321.125a1.936 1.936 0 0 0 1.937-1.934 1.934 1.934 0 0 0-3.304-1.367 1.934 1.934 0 0 0 1.367 3.301ZM125.148 321.121a1.936 1.936 0 1 0 .006-3.872 1.936 1.936 0 0 0-.006 3.872ZM131.121 321.113c.516 0 1.008-.207 1.371-.566.36-.363.567-.856.567-1.371a1.936 1.936 0 1 0-1.937 1.937ZM137.094 321.098a1.936 1.936 0 1 0 .005-3.872 1.936 1.936 0 0 0-.005 3.872ZM143.066 321.07a1.938 1.938 0 0 0 1.937-1.934 1.938 1.938 0 0 0-3.304-1.366 1.934 1.934 0 0 0 1.367 3.3ZM149.04 321.031a1.936 1.936 0 1 0-1.367-3.305 1.934 1.934 0 0 0-.001 2.739c.363.36.855.566 1.367.566ZM155.012 320.96a1.934 1.934 0 1 0 0-3.867 1.934 1.934 0 0 0 0 3.868ZM160.984 320.855a1.934 1.934 0 0 0 1.368-3.304 1.934 1.934 0 1 0-2.735 2.738c.363.363.856.566 1.367.566ZM166.957 320.687a1.938 1.938 0 0 0 1.367-3.304 1.934 1.934 0 1 0-2.734 2.734c.363.363.855.57 1.367.57ZM172.93 320.422a1.934 1.934 0 0 0 1.367-3.305 1.934 1.934 0 1 0-2.734 2.738c.359.364.851.567 1.367.567ZM178.902 320.016a1.936 1.936 0 1 0-1.367-3.305c-.363.363-.57.855-.57 1.367a1.94 1.94 0 0 0 1.937 1.938ZM184.875 319.395a1.934 1.934 0 0 0 1.367-3.301 1.94 1.94 0 0 0-1.367-.57 1.94 1.94 0 0 0-1.937 1.937 1.936 1.936 0 0 0 1.937 1.934ZM190.848 318.465a1.934 1.934 0 0 0 1.367-3.305 1.934 1.934 0 0 0-2.738 0 1.936 1.936 0 0 0 1.37 3.305ZM196.82 317.086a1.934 1.934 0 0 0 1.367-3.305 1.95 1.95 0 0 0-1.367-.566 1.936 1.936 0 1 0 0 3.871ZM202.793 315.07a1.934 1.934 0 1 0-1.371-3.3 1.934 1.934 0 0 0 1.371 3.3ZM208.762 312.168a1.936 1.936 0 0 0 1.937-1.934 1.934 1.934 0 0 0-3.304-1.367 1.934 1.934 0 0 0 1.367 3.301ZM214.734 308.063a1.936 1.936 0 1 0 .006-3.873 1.936 1.936 0 0 0-.006 3.873ZM220.707 302.36a1.936 1.936 0 1 0 .006-3.873 1.936 1.936 0 0 0-.006 3.872ZM226.68 294.617a1.938 1.938 0 0 0 1.937-1.934 1.938 1.938 0 0 0-3.305-1.367 1.934 1.934 0 0 0 1.368 3.301ZM232.652 284.395a1.94 1.94 0 0 0 1.937-1.937 1.938 1.938 0 0 0-3.304-1.368 1.934 1.934 0 0 0 0 2.738c.363.363.856.567 1.367.567ZM238.625 271.32a1.934 1.934 0 1 0 0-3.867 1.934 1.934 0 0 0 0 3.867ZM244.598 255.254a1.936 1.936 0 1 0-1.367-3.305 1.934 1.934 0 0 0 0 2.738c.363.36.855.567 1.367.567ZM250.57 236.395a1.938 1.938 0 0 0 1.367-3.305 1.934 1.934 0 1 0-2.734 2.734c.363.363.856.57 1.367.57ZM256.543 215.414a1.936 1.936 0 1 0-1.367-3.305 1.934 1.934 0 0 0 0 2.739c.363.359.855.566 1.367.566ZM262.516 193.437a1.934 1.934 0 0 0 1.367-3.304 1.934 1.934 0 0 0-2.735 0c-.363.363-.57.855-.57 1.367a1.94 1.94 0 0 0 1.938 1.937ZM268.488 171.879a1.934 1.934 0 1 0-1.367-3.3c-.363.362-.57.855-.57 1.366a1.94 1.94 0 0 0 1.937 1.934ZM274.46 152.168a1.936 1.936 0 1 0-.005-3.87 1.936 1.936 0 0 0 .006 3.87ZM280.434 135.434a1.936 1.936 0 1 0-.005-3.87 1.936 1.936 0 0 0 .005 3.87ZM286.406 122.344a1.934 1.934 0 0 0 1.367-3.305 1.95 1.95 0 0 0-1.367-.566 1.936 1.936 0 1 0 0 3.871ZM292.375 113.074a1.936 1.936 0 1 0 .003-3.87 1.936 1.936 0 0 0-.003 3.87ZM298.348 107.398a1.936 1.936 0 1 0 .005-3.872 1.936 1.936 0 0 0-.005 3.872ZM304.32 104.855a1.936 1.936 0 0 0 1.938-1.933 1.936 1.936 0 1 0-3.305 1.367c.363.363.856.566 1.367.566ZM310.293 104.895c.516 0 1.008-.208 1.371-.567.36-.363.566-.855.566-1.371a1.936 1.936 0 1 0-1.937 1.937ZM316.266 106.953a1.938 1.938 0 0 0 1.937-1.934 1.938 1.938 0 0 0-3.305-1.367 1.934 1.934 0 0 0 1.368 3.301ZM322.238 110.547a1.934 1.934 0 0 0 1.367-3.3 1.924 1.924 0 0 0-2.734 0 1.934 1.934 0 0 0 1.367 3.3ZM328.21 115.262a1.934 1.934 0 0 0 1.368-3.301 1.94 1.94 0 0 0-1.367-.57 1.938 1.938 0 0 0-1.367 3.304c.363.364.855.567 1.367.567ZM334.184 120.773a1.938 1.938 0 0 0 1.367-3.304 1.934 1.934 0 1 0-2.735 2.734c.364.363.856.57 1.368.57ZM340.156 126.824a1.936 1.936 0 1 0-1.367-3.305 1.934 1.934 0 0 0 0 2.739c.363.36.856.566 1.367.566ZM346.129 133.223a1.934 1.934 0 0 0 1.367-3.301 1.94 1.94 0 0 0-1.367-.57 1.938 1.938 0 0 0-1.367 3.304c.363.364.855.567 1.367.567ZM352.102 139.828a1.934 1.934 0 0 0 1.367-3.3 1.924 1.924 0 0 0-2.734 0 1.924 1.924 0 0 0 0 2.734c.359.363.85.566 1.367.566ZM358.074 146.531a1.934 1.934 0 1 0-1.37-3.3 1.95 1.95 0 0 0-.567 1.367 1.936 1.936 0 0 0 1.937 1.934ZM364.047 153.254a1.934 1.934 0 0 0 1.367-3.305 1.95 1.95 0 0 0-1.367-.566c-.516 0-1.008.207-1.371.566-.36.364-.567.856-.567 1.371a1.936 1.936 0 0 0 1.937 1.934ZM370.02 159.937a1.938 1.938 0 0 0 1.367-3.304 1.934 1.934 0 0 0-2.739 0 1.934 1.934 0 0 0 0 2.734c.364.363.856.57 1.372.57ZM375.992 166.531a1.934 1.934 0 1 0-1.37-3.3 1.934 1.934 0 0 0 1.37 3.3ZM381.96 173.016a1.94 1.94 0 0 0 1.938-1.938 1.934 1.934 0 0 0-3.304-1.367 1.934 1.934 0 0 0 0 2.734c.363.364.855.57 1.367.57ZM387.934 179.355a1.936 1.936 0 1 0 .005-3.872 1.936 1.936 0 0 0-.005 3.872ZM393.906 185.54a1.94 1.94 0 0 0 1.938-1.938 1.936 1.936 0 1 0-3.305 1.367c.363.363.856.57 1.367.57ZM399.879 191.55a1.936 1.936 0 1 0 .005-3.871 1.936 1.936 0 0 0-.005 3.872ZM405.852 197.383a1.938 1.938 0 0 0 1.937-1.934 1.94 1.94 0 0 0-1.937-1.937 1.936 1.936 0 0 0 0 3.871ZM411.824 203.031a1.934 1.934 0 0 0 1.367-3.304 1.934 1.934 0 1 0-2.734 2.738c.363.363.855.566 1.367.566ZM417.797 208.488a1.934 1.934 0 1 0 0-3.867 1.934 1.934 0 0 0 0 3.867ZM423.77 213.758a1.934 1.934 0 0 0 1.367-3.305 1.934 1.934 0 1 0-2.735 2.738c.364.364.856.567 1.368.567ZM429.742 218.832a1.934 1.934 0 0 0 1.367-3.3 1.94 1.94 0 0 0-1.367-.571 1.938 1.938 0 0 0-1.367 3.305c.363.363.855.566 1.367.566ZM435.715 223.719a1.938 1.938 0 0 0 1.367-3.305 1.934 1.934 0 1 0-2.734 2.734c.359.364.851.57 1.367.57ZM441.687 228.41a1.934 1.934 0 1 0-1.367-3.3c-.363.363-.57.855-.57 1.367a1.94 1.94 0 0 0 1.937 1.933ZM447.66 232.918a1.934 1.934 0 1 0-1.37-3.3 1.95 1.95 0 0 0-.567 1.366 1.937 1.937 0 0 0 1.937 1.934ZM453.633 237.242a1.934 1.934 0 1 0-1.371-3.3 1.95 1.95 0 0 0-.567 1.367 1.936 1.936 0 0 0 1.937 1.934ZM459.605 241.387a1.934 1.934 0 0 0 1.368-3.301 1.94 1.94 0 0 0-1.368-.57 1.94 1.94 0 0 0-1.937 1.937 1.934 1.934 0 0 0 1.937 1.934ZM465.578 245.355a1.934 1.934 0 0 0 1.367-3.304 1.934 1.934 0 0 0-2.738 0 1.934 1.934 0 0 0 0 2.738c.363.363.856.566 1.371.566ZM471.547 249.148a1.936 1.936 0 0 0 1.937-1.933 1.934 1.934 0 0 0-3.304-1.367 1.934 1.934 0 0 0 1.367 3.3ZM477.52 252.777a1.936 1.936 0 0 0 1.937-1.933 1.94 1.94 0 0 0-1.938-1.937 1.938 1.938 0 0 0-1.367 3.304c.364.363.856.566 1.368.566ZM483.492 256.242a1.936 1.936 0 0 0 1.938-1.933 1.936 1.936 0 1 0-3.305 1.367c.363.363.855.566 1.367.566ZM489.465 259.55a1.938 1.938 0 0 0 1.938-1.934c0-.514-.208-1.007-.571-1.366a1.934 1.934 0 1 0-1.367 3.3ZM495.438 262.707a1.938 1.938 0 0 0 1.938-1.934c-.001-.515-.208-1.007-.571-1.367a1.924 1.924 0 0 0-2.735 0 1.934 1.934 0 0 0 1.367 3.3ZM501.41 265.715a1.934 1.934 0 1 0 0-3.868 1.934 1.934 0 0 0 0 3.868ZM507.383 268.582a1.934 1.934 0 1 0 0-3.868 1.934 1.934 0 0 0 0 3.868ZM513.355 271.316a1.938 1.938 0 0 0 1.368-3.304 1.934 1.934 0 1 0-2.735 2.734c.364.363.856.57 1.367.57ZM519.328 273.914a1.934 1.934 0 0 0 1.367-3.305 1.934 1.934 0 1 0-2.734 2.739c.363.363.855.566 1.367.566ZM525.3 276.387a1.934 1.934 0 0 0 1.368-3.301 1.924 1.924 0 0 0-2.734 0 1.924 1.924 0 0 0 0 2.734c.359.364.851.567 1.367.567ZM531.273 278.738a1.934 1.934 0 1 0-1.367-3.3c-.363.363-.57.855-.57 1.367a1.94 1.94 0 0 0 1.937 1.933ZM537.246 280.977a1.934 1.934 0 0 0 1.367-3.305 1.934 1.934 0 0 0-2.738 0 1.95 1.95 0 0 0-.566 1.367 1.936 1.936 0 0 0 1.937 1.938ZM543.219 283.102a1.934 1.934 0 0 0 1.367-3.305 1.934 1.934 0 0 0-2.738 0 1.934 1.934 0 0 0 0 2.738c.363.363.855.567 1.37.567ZM549.191 285.121a1.936 1.936 0 1 0-.005-3.87 1.936 1.936 0 0 0 .005 3.87ZM555.16 287.035a1.936 1.936 0 0 0 1.938-1.933 1.934 1.934 0 0 0-3.305-1.368 1.934 1.934 0 0 0 1.367 3.301ZM561.133 288.855a1.936 1.936 0 0 0 1.937-1.933 1.934 1.934 0 0 0-3.304-1.367 1.934 1.934 0 0 0 1.367 3.3ZM567.105 290.582a1.936 1.936 0 0 0 1.938-1.934 1.934 1.934 0 0 0-3.305-1.367 1.934 1.934 0 0 0 1.367 3.301ZM573.078 292.223a1.936 1.936 0 1 0 .006-3.872 1.936 1.936 0 0 0-.006 3.872ZM579.05 293.777a1.94 1.94 0 0 0 1.937-1.937 1.938 1.938 0 0 0-3.303-1.367 1.934 1.934 0 0 0 0 2.738c.363.363.855.566 1.367.566ZM585.023 295.25a1.934 1.934 0 0 0 1.367-3.305 1.94 1.94 0 0 0-1.367-.566 1.936 1.936 0 0 0 0 3.871ZM590.996 296.648a1.934 1.934 0 0 0 1.367-3.304 1.934 1.934 0 1 0-2.734 2.738c.363.363.855.566 1.367.566ZM596.969 297.973a1.934 1.934 0 0 0 1.367-3.305 1.934 1.934 0 1 0-2.734 2.738c.363.364.855.567 1.367.567ZM602.941 299.227a1.934 1.934 0 0 0 1.368-3.305 1.934 1.934 0 1 0-2.735 2.738c.363.363.856.567 1.367.567ZM608.914 300.414a1.934 1.934 0 1 0 0-3.868 1.934 1.934 0 0 0 0 3.868ZM614.887 301.543a1.936 1.936 0 1 0-1.367-3.305c-.364.364-.57.856-.57 1.367a1.94 1.94 0 0 0 1.937 1.938ZM620.86 302.61a1.936 1.936 0 1 0-.005-3.87 1.936 1.936 0 0 0 .004 3.87ZM626.832 303.617a1.934 1.934 0 0 0 1.367-3.3 1.94 1.94 0 0 0-1.367-.57 1.94 1.94 0 0 0-1.937 1.937 1.936 1.936 0 0 0 1.937 1.934ZM632.805 304.574a1.934 1.934 0 0 0 1.367-3.304 1.934 1.934 0 0 0-2.738 0 1.936 1.936 0 0 0 1.37 3.304ZM638.777 305.48a1.938 1.938 0 0 0 1.368-3.304 1.934 1.934 0 0 0-2.739 0 1.934 1.934 0 0 0 0 2.734c.364.363.856.57 1.371.57ZM644.746 306.336a1.936 1.936 0 1 0 .006-3.872 1.936 1.936 0 0 0-.006 3.872ZM650.719 307.145a1.936 1.936 0 0 0 1.937-1.934 1.934 1.934 0 0 0-3.304-1.367 1.934 1.934 0 0 0 1.367 3.3ZM656.691 307.914a1.936 1.936 0 1 0 .006-3.872 1.936 1.936 0 0 0-.006 3.872ZM662.664 308.637a1.936 1.936 0 0 0 1.938-1.934 1.936 1.936 0 1 0-3.305 1.367c.363.364.855.567 1.367.567ZM668.637 309.324a1.938 1.938 0 0 0 1.937-1.934 1.938 1.938 0 0 0-3.304-1.367 1.934 1.934 0 0 0 1.367 3.301ZM674.61 309.973a1.934 1.934 0 1 0-.001-3.868 1.934 1.934 0 0 0 0 3.868ZM680.582 310.59a1.936 1.936 0 1 0-1.367-3.305 1.934 1.934 0 0 0 0 2.738c.363.36.855.567 1.367.567ZM686.555 311.168a1.934 1.934 0 1 0 0-3.868 1.934 1.934 0 0 0 0 3.868ZM692.527 311.719a1.934 1.934 0 0 0 1.368-3.305 1.934 1.934 0 1 0-2.735 2.738c.363.364.856.567 1.367.567ZM698.5 312.238a1.934 1.934 0 0 0 1.367-3.304 1.934 1.934 0 1 0-2.734 2.738c.36.363.851.566 1.367.566ZM704.473 312.73a1.938 1.938 0 0 0 1.367-3.304 1.934 1.934 0 0 0-2.735 0 1.924 1.924 0 0 0 0 2.734c.36.363.852.57 1.368.57ZM710.445 313.191a1.934 1.934 0 1 0-1.37-3.3 1.95 1.95 0 0 0-.567 1.367 1.936 1.936 0 0 0 1.937 1.934ZM716.418 313.633a1.934 1.934 0 0 0 1.367-3.305 1.934 1.934 0 0 0-2.738 0 1.95 1.95 0 0 0-.567 1.367 1.936 1.936 0 0 0 1.937 1.937ZM722.39 314.047a1.934 1.934 0 0 0 1.368-3.305 1.934 1.934 0 0 0-2.738 0 1.936 1.936 0 0 0 1.37 3.305ZM728.363 314.437a1.934 1.934 0 1 0-1.37-3.3 1.934 1.934 0 0 0 1.37 3.3ZM734.332 314.809a1.936 1.936 0 1 0 .006-3.873 1.936 1.936 0 0 0-.006 3.873ZM740.305 315.16a1.936 1.936 0 1 0 .005-3.872 1.936 1.936 0 0 0-.005 3.872ZM746.277 315.488a1.936 1.936 0 0 0 1.938-1.933 1.936 1.936 0 1 0-3.305 1.367c.363.363.856.566 1.367.566ZM752.25 315.805a1.94 1.94 0 0 0 1.937-1.938 1.936 1.936 0 1 0-3.305 1.367c.364.364.856.57 1.368.57ZM758.223 316.098a1.938 1.938 0 0 0 1.937-1.934c0-.516-.207-1.008-.57-1.367a1.924 1.924 0 0 0-2.735 0 1.934 1.934 0 0 0 1.367 3.3ZM764.195 316.379a1.936 1.936 0 1 0-1.367-3.305 1.934 1.934 0 0 0 0 2.738c.363.36.856.567 1.367.567ZM770.168 316.64a1.934 1.934 0 1 0 0-3.867 1.934 1.934 0 0 0 0 3.868ZM776.14 316.89a1.934 1.934 0 0 0 1.368-3.304 1.95 1.95 0 0 0-1.367-.566 1.936 1.936 0 0 0 0 3.871ZM782.113 317.125a1.934 1.934 0 1 0 0-3.868 1.934 1.934 0 0 0 0 3.868ZM788.086 317.348a1.934 1.934 0 1 0 0-3.868 1.934 1.934 0 0 0 0 3.868ZM794.059 317.559a1.934 1.934 0 0 0 1.367-3.305 1.95 1.95 0 0 0-1.367-.567 1.937 1.937 0 0 0 0 3.872ZM800.031 317.758a1.934 1.934 0 0 0 1.367-3.305 1.934 1.934 0 0 0-2.738 0c-.36.363-.566.856-.566 1.371a1.936 1.936 0 0 0 1.937 1.934ZM806.004 317.945a1.934 1.934 0 0 0 1.367-3.304 1.934 1.934 0 0 0-2.738 0 1.936 1.936 0 0 0 1.37 3.304ZM811.977 318.121a1.934 1.934 0 1 0-1.372-3.3 1.934 1.934 0 0 0 1.372 3.3Zm0 0"/><path fill="#b22222" fill-opacity=".3" stroke="#b22222" stroke-linejoin="round" stroke-miterlimit="10" stroke-opacity=".3" stroke-width=".99918" d="M83.344 319.18v.02l5.972-.005h11.946l5.972-.004 5.973-.007 5.969-.008 5.972-.012 5.973-.023 5.973-.035 5.972-.047 5.973-.078 5.973-.141 5.972-.2 5.973-.265 5.973-.39 5.972-.524 5.973-.703 5.973-1.04 5.972-1.218 5.973-1.742 5.969-2.422 5.972-2.973 5.973-4.054 5.973-4.946 5.972-6.257 5.973-7.157 5.973-8.261 5.972-9.961 5.973-10.797 5.973-11.918 5.972-12.899 5.973-14.332 5.973-14.691 5.972-14.457 5.969-10.613 5.973-8.68 5.972-8.55 5.973-3.337 5.973-3.71 5.972.19 5.973 1.716 5.973 3.054 5.972 4.656 5.973 4.59 5.972 3.774 5.973 4.433 5.973 5.243 5.972 4.39 5.973 5.305 5.969 5.219 5.973 4.52 5.972 5.429 5.973 5.527 5.972 5.317 5.973 5.25 5.973 4.609 5.972 4.414 5.973 4.207 5.973 4.547 5.972 4.531 5.973 4.313 5.973 3.855 5.972 3.766 5.973 3.59 5.969 3.601 5.972 3.469 5.973 3.27 5.973 3.078 5.972 2.941 5.973 2.687 5.973 2.528 5.972 2.355 5.973 2.094 5.973 2.047 5.972 2 5.973 1.8 5.973 1.727 5.972 1.672 5.969 1.563 5.973 1.484 5.972 1.352 5.973 1.273 5.973 1.203 5.972 1.184 5.973 1.11 5.973 1.026 5.972.914 5.973.856 5.973.84 5.972.781 5.973.73 5.973.684 5.972.64 5.969.594 5.973.56 5.972.523 5.973.48 5.973.445 5.972.422 5.973.406 5.973.375 5.972.356 5.973.332 5.973.305 5.972.289 5.973.265 5.972.25 5.973.235 5.969.215 5.973.199 5.972.187 5.973.172 5.973.164 5.972.153 5.973.14 5.972.133 5.973.125 5.973.117 5.972.11 5.973.101 5.973.094 5.972.086v-5.153l-5.972-.332-5.973-.351-5.973-.371-5.972-.387-5.973-.406-5.973-.43-5.972-.453-5.973-.473-5.972-.496-5.973-.523-5.973-.551-5.972-.574-5.973-.606-5.969-.636-5.973-.68-5.972-.719-5.973-.762-5.972-.796-5.973-.809-5.973-.848-5.972-.89-5.973-.934-5.973-.976-5.972-1.028-5.973-1.07-5.973-1.125-5.972-1.203-5.973-1.246-5.969-1.32-5.972-1.387-5.973-1.454-5.973-1.515-5.972-1.559-5.973-1.617-5.973-1.687-5.972-1.766-5.973-1.84-5.973-1.941-5.972-2.051-5.973-2.168-5.973-2.41-5.972-2.356-5.973-2.418-5.969-2.539-5.972-2.722-5.973-2.844-5.973-2.957-5.972-3.129-5.973-3.262-5.973-3.441-5.972-3.488-5.973-3.961-5.973-4.11-5.972-4.215-5.973-4.207-5.973-4.617-5.972-4.738-5.969-4.781-5.973-5.02-5.972-5.004-5.973-5.238-5.973-5.672-5.972-5.973-5.973-6.386-5.973-6.09-5.972-5.363-5.973-6.614-5.973-7.133-5.972-7.324-5.973-7.718-5.972-7.598-5.973-8.824-5.969-9.02-5.973-9.125-5.972-8.25-5.973-7.926-5.973-8.386-5.972-9.098-5.973-6.176-5.972-7.21-5.973-7.38-5.973-4.257-5.972-1.106-5.973-2.836-5.973-2.234-5.972-1.04-5.973 3.31-5.969 3.23-5.972 3.105-5.973 5.469-5.973 9.004-5.972 13.469-5.973 18.543-5.973 14.03-5.972 20.364-5.973 21.531-5.973 21.02-5.972 21.445-5.973 21.582-5.973 16.813-5.972 18.12-5.97 16.298-5.972 12.918-5.972 10.601-5.973 8.488-5.973 6.856-5.972 4.637-5.973 3.476-5.973 2.633-5.972 1.852-5.973 1.261-5.973.844-5.972.578-5.973.406-5.973.266-5.972.172-5.969.105-5.973.07-5.972.04-5.973.023-5.973.012Zm0 0"/><g clip-path="url(#b)"><path fill="none" stroke="#b0b0b0" stroke-dasharray=".799344 1.3189176" stroke-linejoin="round" stroke-miterlimit="10" stroke-opacity=".6" stroke-width=".799344" d="M83.344 333.328V22.473"/></g><path fill="none" stroke="#000" stroke-linejoin="round" stroke-miterlimit="10" stroke-width=".799344" d="M83.344 333.328v3.496"/><g clip-path="url(#c)"><path fill="none" stroke="#b0b0b0" stroke-dasharray=".799344 1.3189176" stroke-linejoin="round" stroke-miterlimit="10" stroke-opacity=".6" stroke-width=".799344" d="M202.793 333.328V22.473"/></g><path fill="none" stroke="#000" stroke-linejoin="round" stroke-miterlimit="10" stroke-width=".799344" d="M202.793 333.328v3.496"/><g clip-path="url(#d)"><path fill="none" stroke="#b0b0b0" stroke-dasharray=".799344 1.3189176" stroke-linejoin="round" stroke-miterlimit="10" stroke-opacity=".6" stroke-width=".799344" d="M322.238 333.328V22.473"/></g><path fill="none" stroke="#000" stroke-linejoin="round" stroke-miterlimit="10" stroke-width=".799344" d="M322.238 333.328v3.496"/><g clip-path="url(#e)"><path fill="none" stroke="#b0b0b0" stroke-dasharray=".799344 1.3189176" stroke-linejoin="round" stroke-miterlimit="10" stroke-opacity=".6" stroke-width=".799344" d="M441.687 333.328V22.473"/></g><path fill="none" stroke="#000" stroke-linejoin="round" stroke-miterlimit="10" stroke-width=".799344" d="M441.687 333.328v3.496"/><g clip-path="url(#f)"><path fill="none" stroke="#b0b0b0" stroke-dasharray=".799344 1.3189176" stroke-linejoin="round" stroke-miterlimit="10" stroke-opacity=".6" stroke-width=".799344" d="M561.133 333.328V22.473"/></g><path fill="none" stroke="#000" stroke-linejoin="round" stroke-miterlimit="10" stroke-width=".799344" d="M561.133 333.328v3.496"/><g clip-path="url(#g)"><path fill="none" stroke="#b0b0b0" stroke-dasharray=".799344 1.3189176" stroke-linejoin="round" stroke-miterlimit="10" stroke-opacity=".6" stroke-width=".799344" d="M680.582 333.328V22.473"/></g><path fill="none" stroke="#000" stroke-linejoin="round" stroke-miterlimit="10" stroke-width=".799344" d="M680.582 333.328v3.496"/><g clip-path="url(#h)"><path fill="none" stroke="#b0b0b0" stroke-dasharray=".799344 1.3189176" stroke-linejoin="round" stroke-miterlimit="10" stroke-opacity=".6" stroke-width=".799344" d="M800.031 333.328V22.473"/></g><path fill="none" stroke="#000" stroke-linejoin="round" stroke-miterlimit="10" stroke-width=".799344" d="M800.031 333.328v3.496"/><g clip-path="url(#i)"><path fill="none" stroke="#b0b0b0" stroke-dasharray=".799344 1.3189176" stroke-linejoin="round" stroke-miterlimit="10" stroke-opacity=".6" stroke-width=".799344" d="M46.91 319.2h801.496"/></g><path fill="none" stroke="#000" stroke-linejoin="round" stroke-miterlimit="10" stroke-width=".799344" d="M46.91 319.2h-3.496"/><use xlink:href="#j" x="33.563" y="322.992"/><g clip-path="url(#k)"><path fill="none" stroke="#b0b0b0" stroke-dasharray=".799344 1.3189176" stroke-linejoin="round" stroke-miterlimit="10" stroke-opacity=".6" stroke-width=".799344" d="M46.91 262.23h801.496"/></g><path fill="none" stroke="#000" stroke-linejoin="round" stroke-miterlimit="10" stroke-width=".799344" d="M46.91 262.23h-3.496"/><use xlink:href="#l" x="20.855" y="266.024"/><use xlink:href="#j" x="27.21" y="266.024"/><use xlink:href="#j" x="33.564" y="266.024"/><g clip-path="url(#m)"><path fill="none" stroke="#b0b0b0" stroke-dasharray=".799344 1.3189176" stroke-linejoin="round" stroke-miterlimit="10" stroke-opacity=".6" stroke-width=".799344" d="M46.91 205.262h801.496"/></g><path fill="none" stroke="#000" stroke-linejoin="round" stroke-miterlimit="10" stroke-width=".799344" d="M46.91 205.262h-3.496"/><use xlink:href="#n" x="20.855" y="209.056"/><use xlink:href="#j" x="27.21" y="209.056"/><use xlink:href="#j" x="33.564" y="209.056"/><g clip-path="url(#o)"><path fill="none" stroke="#b0b0b0" stroke-dasharray=".799344 1.3189176" stroke-linejoin="round" stroke-miterlimit="10" stroke-opacity=".6" stroke-width=".799344" d="M46.91 148.293h801.496"/></g><path fill="none" stroke="#000" stroke-linejoin="round" stroke-miterlimit="10" stroke-width=".799344" d="M46.91 148.293h-3.496"/><use xlink:href="#p" x="20.855" y="152.088"/><use xlink:href="#j" x="27.21" y="152.088"/><use xlink:href="#j" x="33.564" y="152.088"/><g clip-path="url(#q)"><path fill="none" stroke="#b0b0b0" stroke-dasharray=".799344 1.3189176" stroke-linejoin="round" stroke-miterlimit="10" stroke-opacity=".6" stroke-width=".799344" d="M46.91 91.328h801.496"/></g><path fill="none" stroke="#000" stroke-linejoin="round" stroke-miterlimit="10" stroke-width=".799344" d="M46.91 91.328h-3.496"/><use xlink:href="#r" x="20.855" y="95.12"/><use xlink:href="#j" x="27.21" y="95.12"/><use xlink:href="#j" x="33.564" y="95.12"/><g clip-path="url(#s)"><path fill="none" stroke="#b0b0b0" stroke-dasharray=".799344 1.3189176" stroke-linejoin="round" stroke-miterlimit="10" stroke-opacity=".6" stroke-width=".799344" d="M46.91 34.36h801.496"/></g><path fill="none" stroke="#000" stroke-linejoin="round" stroke-miterlimit="10" stroke-width=".799344" d="M46.91 34.36h-3.496"/><use xlink:href="#t" x="20.855" y="38.152"/><use xlink:href="#j" x="27.21" y="38.152"/><use xlink:href="#j" x="33.564" y="38.152"/><use xlink:href="#u" x="14.782" y="209.858"/><use xlink:href="#v" x="14.782" y="202.164"/><use xlink:href="#w" x="14.782" y="196.039"/><use xlink:href="#x" x="14.782" y="193.262"/><use xlink:href="#y" x="14.782" y="190.484"/><use xlink:href="#z" x="14.782" y="184.569"/><use xlink:href="#u" x="14.782" y="181.391"/><use xlink:href="#A" x="14.782" y="173.698"/><use xlink:href="#v" x="14.782" y="167.553"/><use xlink:href="#B" x="14.782" y="161.428"/><use xlink:href="#C" x="14.782" y="157.511"/><use xlink:href="#D" x="14.782" y="151.176"/><path fill="none" stroke="#b22222" stroke-linecap="square" stroke-linejoin="round" stroke-miterlimit="10" stroke-width="1.49877" d="m83.344 319.191 5.972-.003 11.946-.016 5.972-.02 5.973-.023 5.969-.04 5.972-.062 5.973-.09 5.973-.132 5.972-.196 5.973-.289 5.973-.414 5.972-.586 5.973-.828 5.973-1.148 5.972-1.578 5.973-2.137 5.973-2.852 5.972-3.753 5.973-4.844 5.969-6.149 5.972-7.636 5.973-9.266 5.973-10.965 5.972-12.633 5.973-14.129 5.973-15.335 5.972-16.122 5.973-16.386 5.973-16.09 5.972-15.23 5.973-13.864 5.973-12.094 5.972-10.043 5.969-7.843 5.973-5.625 5.972-3.493 5.973-1.52 5.973.235 5.972 1.746 5.973 3.004 5.973 4.032 5.972 4.84 5.973 5.453 5.972 5.902 5.973 6.215 5.973 6.406 5.972 6.516 5.973 6.543 5.969 6.52 5.973 6.44 5.972 6.336 5.973 6.2 5.972 6.043 5.973 5.87 5.973 5.696 5.972 5.508 5.973 5.312 5.973 5.125 5.972 4.93 5.973 4.734 5.973 4.547 5.972 4.36 5.973 4.175 5.969 4 5.972 3.82 5.973 3.657 5.973 3.488 5.972 3.328 5.973 3.18 5.973 3.027 5.972 2.883 5.973 2.75 5.973 2.617 5.972 2.489 5.973 2.367 5.973 2.25 5.972 2.14 5.969 2.036 5.973 1.93 5.972 1.835 5.973 1.739 5.973 1.652 5.972 1.57 5.973 1.488 5.973 1.41 5.972 1.337 5.973 1.27 5.973 1.202 5.972 1.14 5.973 1.079 5.973 1.023 5.972.97 5.969.917 5.973.871 5.972.82 5.973.782 5.973.738 5.972.7 5.973.66 5.973.628 5.972.59 5.973.563 5.973.531 5.972.5 5.973.477 5.972.449 5.973.426 5.969.402 5.973.379 5.972.363 5.973.34 5.973.32 5.972.305 5.973.289 5.972.273 5.973.258 5.973.242 5.972.23 5.973.22 5.973.207 5.972.195"/><path fill="none" stroke="#000" stroke-linecap="square" stroke-miterlimit="10" stroke-width=".799344" d="M46.91 333.328V22.473M848.406 333.328V22.473M46.91 333.328h801.496M46.91 22.473h801.496"/><use xlink:href="#E" x="294.932" y="16.477"/><use xlink:href="#F" x="301.632" y="16.477"/><use xlink:href="#G" x="308.982" y="16.477"/><use xlink:href="#F" x="313.91" y="16.477"/><use xlink:href="#H" x="321.26" y="16.477"/><use xlink:href="#I" x="332.938" y="16.477"/><use xlink:href="#J" x="340.312" y="16.477"/><use xlink:href="#I" x="345.012" y="16.477"/><use xlink:href="#G" x="352.386" y="16.477"/><use xlink:href="#K" x="357.314" y="16.477"/><use xlink:href="#L" x="361.127" y="16.477"/><use xlink:href="#I" x="368.929" y="16.477"/><use xlink:href="#M" x="376.303" y="16.477"/><use xlink:href="#N" x="382.898" y="16.477"/><use xlink:href="#O" x="390.236" y="16.477"/><use xlink:href="#I" x="397.334" y="16.477"/><use xlink:href="#G" x="404.708" y="16.477"/><use xlink:href="#P" x="409.636" y="16.477"/><use xlink:href="#K" x="416.734" y="16.477"/><use xlink:href="#Q" x="420.547" y="16.477"/><use xlink:href="#R" x="426.583" y="16.477"/><use xlink:href="#J" x="429.916" y="16.477"/><use xlink:href="#K" x="434.616" y="16.477"/><use xlink:href="#J" x="438.429" y="16.477"/><use xlink:href="#N" x="443.129" y="16.477"/><use xlink:href="#K" x="450.467" y="16.477"/><use xlink:href="#S" x="454.28" y="16.477"/><use xlink:href="#P" x="461.894" y="16.477"/><use xlink:href="#T" x="468.992" y="16.477"/><use xlink:href="#J" x="476.594" y="16.477"/><use xlink:href="#U" x="481.294" y="16.477"/><use xlink:href="#I" x="488.896" y="16.477"/><use xlink:href="#J" x="496.27" y="16.477"/><use xlink:href="#R" x="500.97" y="16.477"/><use xlink:href="#M" x="504.303" y="16.477"/><use xlink:href="#K" x="510.898" y="16.477"/><use xlink:href="#V" x="514.711" y="16.477"/><use xlink:href="#N" x="525.058" y="16.477"/><use xlink:href="#G" x="532.396" y="16.477"/><use xlink:href="#J" x="537.324" y="16.477"/><use xlink:href="#F" x="542.024" y="16.477"/><use xlink:href="#W" x="549.374" y="16.477"/><use xlink:href="#R" x="552.708" y="16.477"/><use xlink:href="#J" x="556.041" y="16.477"/><use xlink:href="#P" x="560.741" y="16.477"/><use xlink:href="#K" x="567.839" y="16.477"/><use xlink:href="#X" x="571.652" y="16.477"/><use xlink:href="#F" x="580.885" y="16.477"/><use xlink:href="#J" x="588.235" y="16.477"/><use xlink:href="#F" x="592.935" y="16.477"/><path fill="#fff" fill-opacity=".8" d="M688.77 74.445h152.644q1.997-.001 1.996-2v-42.98q.001-1.997-1.996-1.996H688.77q-1.997-.001-1.997 1.996v42.98q-.001 1.999 1.997 2m0 0"/><g clip-path="url(#Y)"><path fill="none" stroke="#ccc" stroke-miterlimit="10" stroke-opacity=".8" stroke-width=".99918" d="M688.77 74.445h152.644q1.997-.001 1.996-2v-42.98q.001-1.997-1.996-1.996H688.769q-1.997-.001-1.996 1.996v42.98q-.001 1.999 1.996 2Zm0 0"/></g><path stroke="#000" stroke-linejoin="round" stroke-miterlimit="10" stroke-width=".99918" d="M700.762 38.363a1.934 1.934 0 1 0 0-3.867 1.934 1.934 0 0 0 0 3.867Zm0 0"/><use xlink:href="#Z" x="718.747" y="39.052"/><use xlink:href="#aa" x="725.092" y="39.052"/><use xlink:href="#ab" x="731.007" y="39.052"/><use xlink:href="#ac" x="737.342" y="39.052"/><use xlink:href="#ad" x="741.258" y="39.052"/><use xlink:href="#ae" x="747.593" y="39.052"/><use xlink:href="#ac" x="753.738" y="39.052"/><use xlink:href="#af" x="757.655" y="39.052"/><use xlink:href="#ag" x="760.433" y="39.052"/><use xlink:href="#ah" x="765.928" y="39.052"/><use xlink:href="#ai" x="769.106" y="39.052"/><use xlink:href="#aj" x="776.799" y="39.052"/><use xlink:href="#ac" x="782.924" y="39.052"/><use xlink:href="#aj" x="786.841" y="39.052"/><use xlink:href="#ah" x="792.966" y="39.052"/><use xlink:href="#ak" x="796.144" y="39.052"/><use xlink:href="#ai" x="800.04" y="39.052"/><use xlink:href="#ae" x="807.734" y="39.052"/><use xlink:href="#aj" x="813.879" y="39.052"/><use xlink:href="#ac" x="820.004" y="39.052"/><use xlink:href="#ad" x="823.921" y="39.052"/><use xlink:href="#al" x="830.256" y="39.052"/><use xlink:href="#am" x="835.461" y="39.052"/><path fill="none" stroke="#b22222" stroke-linecap="square" stroke-linejoin="round" stroke-miterlimit="10" stroke-width="1.49877" d="M690.77 50.215h19.984"/><use xlink:href="#an" x="718.747" y="53.712"/><use xlink:href="#ae" x="727.37" y="53.712"/><use xlink:href="#aj" x="733.515" y="53.712"/><use xlink:href="#ab" x="739.64" y="53.712"/><use xlink:href="#ah" x="745.975" y="53.712"/><use xlink:href="#ao" x="749.152" y="53.712"/><use xlink:href="#ab" x="752.1" y="53.712"/><use xlink:href="#ap" x="758.434" y="53.712"/><use xlink:href="#ae" x="761.952" y="53.712"/><use xlink:href="#aq" x="768.096" y="53.712"/><use xlink:href="#aq" x="772.031" y="53.712"/><use xlink:href="#ae" x="775.919" y="53.712"/><use xlink:href="#ar" x="782.064" y="53.712"/><use xlink:href="#ah" x="788.409" y="53.712"/><use xlink:href="#as" x="791.587" y="53.712"/><use xlink:href="#af" x="796.614" y="53.712"/><use xlink:href="#ac" x="799.392" y="53.712"/><path fill="#b22222" fill-opacity=".3" stroke="#b22222" stroke-miterlimit="10" stroke-opacity=".3" stroke-width=".99918" d="M690.77 68.371h19.984V61.38h-19.985Zm0 0"/><use xlink:href="#at" x="718.747" y="68.372"/><use xlink:href="#t" x="725.102" y="68.372"/><use xlink:href="#au" x="731.456" y="68.372"/><use xlink:href="#ah" x="740.949" y="68.372"/><use xlink:href="#av" x="744.126" y="68.372"/><use xlink:href="#aq" x="751.1" y="68.372"/><use xlink:href="#ae" x="754.988" y="68.372"/><use xlink:href="#ar" x="761.133" y="68.372"/><use xlink:href="#af" x="767.478" y="68.372"/><use xlink:href="#aw" x="770.256" y="68.372"/><use xlink:href="#ax" x="776.601" y="68.372"/><use xlink:href="#ae" x="779.379" y="68.372"/><use xlink:href="#ah" x="785.523" y="68.372"/><use xlink:href="#ao" x="788.701" y="68.372"/><use xlink:href="#ab" x="791.648" y="68.372"/><use xlink:href="#ac" x="797.983" y="68.372"/><use xlink:href="#ae" x="801.9" y="68.372"/><use xlink:href="#aq" x="808.045" y="68.372"/><use xlink:href="#ay" x="812.152" y="68.372"/><use xlink:href="#aj" x="818.067" y="68.372"/><use xlink:href="#ax" x="824.192" y="68.372"/><path fill="#fff" d="M46.91 673.82h801.496V362.965H46.91Zm0 0"/><path fill="#ff1493" fill-opacity=".3" stroke="#ff1493" stroke-linejoin="round" stroke-miterlimit="10" stroke-opacity=".3" stroke-width=".99918" d="M83.344 636.844v12.617l5.972-9.969 5.973-9.71 5.973-9.466 5.972-9.222 5.973-8.985 5.969-8.757 5.972-8.528 5.973-8.312 5.973-8.094 5.972-7.887 5.973-7.676 5.973-7.476 5.972-7.27 5.973-7.07 5.973-6.867 5.972-6.66 5.973-6.45 5.973-6.23 5.972-6 5.973-5.746 5.969-5.473 5.972-5.375 5.973-5.144 5.973-4.832 5.972-4.34 5.973-3.566 5.973-3.18 5.972-1.942 5.973-1.64 5.973-.028 5.972-.007 5.973.43 5.973 1.757 5.972 1.996 5.969 2.438 5.973 4.676 5.972 5.148 5.973 3.98 5.973 3.051 5.972 2.996 5.973 4.18 5.973 3.441 5.972 3.555 5.973 3.438 5.972 3.195 5.973 2.836 5.973 3.238 5.972 3.04 5.973 2.952 5.969 2.809 5.973 2.812 5.972 2.676 5.973 2.422 5.972 2.461 5.973 2.523 5.973 2.094 5.972 1.852 5.973 1.527 5.973 1.43 5.972 1.34 5.973 1.754 5.973 1.523 5.972 1.441 5.973 1.356 5.969 1.375 5.972 1.57 5.973 1.363 5.973.903 5.972.847 5.973.797 5.973.746 5.972.7 5.973.656 5.973.62 5.972.58 5.973.546 5.973.64 5.972.61 5.969.566 5.973.535 5.972.504 5.973.48 5.973.454 5.972.426 5.973.402 5.973.375 5.972.356 5.973.332 5.973.316 5.972.262 5.973.234 5.973.223 5.972.219 5.969.226 5.973.215 5.972.2 5.973.19 5.973.18 5.972.168 5.973.16 5.973.149 5.972.14 5.973.133 5.973.125 5.972.121 5.973.11 5.972.105 5.973.098 5.969.094 11.945.171 11.946.149 5.972.07 5.973.067 11.945.117 5.973.054 11.945.102 11.945.086v-89.375l-11.945-.062-11.945-.07-5.973-.04-17.918-.129-11.945-.101-11.945-.11-5.973-.062-5.969-.067-5.973-.066-5.972-.07-5.973-.078-5.972-.082-5.973-.086-5.973-.09-5.972-.094-11.946-.211-5.972-.113-5.973-.121-5.973-.13-5.972-.132-5.973-.145-5.969-.152-5.972-.152-5.973-.13-5.973-.132-5.972-.14-5.973-.153-5.973-.16-5.972-.168-5.973-.184-5.973-.191-5.972-.203-5.973-.219-5.973-.23-5.972-.25-5.973-.34-5.969-.367-5.972-.387-5.973-.41-5.973-.434-5.972-.46-5.973-.485-5.973-.512-5.972-.543-5.973-.574-5.973-.606-5.972-.64-5.973-.68-5.973-.715-5.972-.758-5.969-.796-5.973-.848-5.972-.89-5.973-.946-5.973-.996-5.972-1.055-5.973-1.207-5.973-1.418-5.972-1.492-5.973-1.59-5.973-1.68-5.972-1.765-5.973-1.54-5.972-1.769-5.973-1.945-5.969-2.383-5.973-2.308-5.972-1.926-5.973-1.832-5.973-1.801-5.972-2.27-5.973-2.656-5.972-2.906-5.973-2.828-5.973-3.29-5.972-3.09-5.973-3.007-5.973-3.289-5.972-4.113-5.973-3.567-5.969-2.992-5.972-3.047-5.973-3.652-5.973-3.715-5.972-3.555-5.973-2.207-5.973-2.355-5.972-1.508-5.973-1.656-5.973.172-5.972.28-5.973.067-5.973 1.903-5.972 2.754-5.97 3.918-5.972 4.543-5.972 5.523-5.973 6.437-5.973 7.293-5.972 8.028-5.973 8.738-5.973 9.52-5.972 10.28-5.973 11.04-5.973 11.805-5.972 12.586-5.973 13.39-5.973 14.235-5.972 15.113-5.969 16.043-5.973 17.02-5.972 18.058-5.973 19.148-5.973 20.313Zm0 0"/><g clip-path="url(#az)"><path fill="none" stroke="#b0b0b0" stroke-dasharray=".799344 1.3189176" stroke-linejoin="round" stroke-miterlimit="10" stroke-opacity=".6" stroke-width=".799344" d="M83.344 673.82V362.965"/></g><path fill="none" stroke="#000" stroke-linejoin="round" stroke-miterlimit="10" stroke-width=".799344" d="M83.344 673.82v3.496"/><use xlink:href="#j" x="80.166" y="688.401"/><g clip-path="url(#aA)"><path fill="none" stroke="#b0b0b0" stroke-dasharray=".799344 1.3189176" stroke-linejoin="round" stroke-miterlimit="10" stroke-opacity=".6" stroke-width=".799344" d="M202.793 673.82V362.965"/></g><path fill="none" stroke="#000" stroke-linejoin="round" stroke-miterlimit="10" stroke-width=".799344" d="M202.793 673.82v3.496"/><use xlink:href="#n" x="196.437" y="688.401"/><use xlink:href="#j" x="202.792" y="688.401"/><g clip-path="url(#aB)"><path fill="none" stroke="#b0b0b0" stroke-dasharray=".799344 1.3189176" stroke-linejoin="round" stroke-miterlimit="10" stroke-opacity=".6" stroke-width=".799344" d="M322.238 673.82V362.965"/></g><path fill="none" stroke="#000" stroke-linejoin="round" stroke-miterlimit="10" stroke-width=".799344" d="M322.238 673.82v3.496"/><use xlink:href="#r" x="315.885" y="688.401"/><use xlink:href="#j" x="322.239" y="688.401"/><g clip-path="url(#aC)"><path fill="none" stroke="#b0b0b0" stroke-dasharray=".799344 1.3189176" stroke-linejoin="round" stroke-miterlimit="10" stroke-opacity=".6" stroke-width=".799344" d="M441.687 673.82V362.965"/></g><path fill="none" stroke="#000" stroke-linejoin="round" stroke-miterlimit="10" stroke-width=".799344" d="M441.687 673.82v3.496"/><use xlink:href="#aD" x="435.332" y="688.401"/><use xlink:href="#j" x="441.687" y="688.401"/><g clip-path="url(#aE)"><path fill="none" stroke="#b0b0b0" stroke-dasharray=".799344 1.3189176" stroke-linejoin="round" stroke-miterlimit="10" stroke-opacity=".6" stroke-width=".799344" d="M561.133 673.82V362.965"/></g><path fill="none" stroke="#000" stroke-linejoin="round" stroke-miterlimit="10" stroke-width=".799344" d="M561.133 673.82v3.496"/><use xlink:href="#aF" x="554.78" y="688.401"/><use xlink:href="#j" x="561.135" y="688.401"/><g clip-path="url(#aG)"><path fill="none" stroke="#b0b0b0" stroke-dasharray=".799344 1.3189176" stroke-linejoin="round" stroke-miterlimit="10" stroke-opacity=".6" stroke-width=".799344" d="M680.582 673.82V362.965"/></g><path fill="none" stroke="#000" stroke-linejoin="round" stroke-miterlimit="10" stroke-width=".799344" d="M680.582 673.82v3.496"/><use xlink:href="#l" x="671.051" y="688.401"/><use xlink:href="#j" x="677.406" y="688.401"/><use xlink:href="#j" x="683.761" y="688.401"/><g clip-path="url(#aH)"><path fill="none" stroke="#b0b0b0" stroke-dasharray=".799344 1.3189176" stroke-linejoin="round" stroke-miterlimit="10" stroke-opacity=".6" stroke-width=".799344" d="M800.031 673.82V362.965"/></g><path fill="none" stroke="#000" stroke-linejoin="round" stroke-miterlimit="10" stroke-width=".799344" d="M800.031 673.82v3.496"/><use xlink:href="#l" x="790.499" y="688.401"/><use xlink:href="#n" x="796.854" y="688.401"/><use xlink:href="#j" x="803.208" y="688.401"/><use xlink:href="#aI" x="417.426" y="702.062"/><use xlink:href="#af" x="423.234" y="702.062"/><use xlink:href="#aJ" x="426.012" y="702.062"/><use xlink:href="#ae" x="435.744" y="702.062"/><use xlink:href="#ah" x="441.889" y="702.062"/><use xlink:href="#ak" x="445.066" y="702.062"/><use xlink:href="#ai" x="448.963" y="702.062"/><use xlink:href="#aj" x="456.657" y="702.062"/><use xlink:href="#aa" x="462.782" y="702.062"/><use xlink:href="#al" x="468.697" y="702.062"/><use xlink:href="#am" x="473.903" y="702.062"/><g clip-path="url(#aK)"><path fill="none" stroke="#b0b0b0" stroke-dasharray=".799344 1.3189176" stroke-linejoin="round" stroke-miterlimit="10" stroke-opacity=".6" stroke-width=".799344" d="M46.91 633.984h801.496"/></g><path fill="none" stroke="#000" stroke-linejoin="round" stroke-miterlimit="10" stroke-width=".799344" d="M46.91 633.984h-3.496"/><use xlink:href="#l" x="27.209" y="637.777"/><use xlink:href="#j" x="33.564" y="637.777"/><g clip-path="url(#aL)"><path fill="none" stroke="#b0b0b0" stroke-dasharray=".799344 1.3189176" stroke-linejoin="round" stroke-miterlimit="10" stroke-opacity=".6" stroke-width=".799344" d="M46.91 592.34h801.496"/></g><path fill="none" stroke="#000" stroke-linejoin="round" stroke-miterlimit="10" stroke-width=".799344" d="M46.91 592.34h-3.496"/><use xlink:href="#n" x="27.209" y="596.133"/><use xlink:href="#j" x="33.564" y="596.133"/><g clip-path="url(#aM)"><path fill="none" stroke="#b0b0b0" stroke-dasharray=".799344 1.3189176" stroke-linejoin="round" stroke-miterlimit="10" stroke-opacity=".6" stroke-width=".799344" d="M46.91 550.695h801.496"/></g><path fill="none" stroke="#000" stroke-linejoin="round" stroke-miterlimit="10" stroke-width=".799344" d="M46.91 550.695h-3.496"/><use xlink:href="#p" x="27.209" y="554.489"/><use xlink:href="#j" x="33.564" y="554.489"/><g clip-path="url(#aN)"><path fill="none" stroke="#b0b0b0" stroke-dasharray=".799344 1.3189176" stroke-linejoin="round" stroke-miterlimit="10" stroke-opacity=".6" stroke-width=".799344" d="M46.91 509.05h801.496"/></g><path fill="none" stroke="#000" stroke-linejoin="round" stroke-miterlimit="10" stroke-width=".799344" d="M46.91 509.05h-3.496"/><use xlink:href="#r" x="27.209" y="512.845"/><use xlink:href="#j" x="33.564" y="512.845"/><g clip-path="url(#aO)"><path fill="none" stroke="#b0b0b0" stroke-dasharray=".799344 1.3189176" stroke-linejoin="round" stroke-miterlimit="10" stroke-opacity=".6" stroke-width=".799344" d="M46.91 467.406h801.496"/></g><path fill="none" stroke="#000" stroke-linejoin="round" stroke-miterlimit="10" stroke-width=".799344" d="M46.91 467.406h-3.496"/><use xlink:href="#t" x="27.209" y="471.201"/><use xlink:href="#j" x="33.564" y="471.201"/><g clip-path="url(#aP)"><path fill="none" stroke="#b0b0b0" stroke-dasharray=".799344 1.3189176" stroke-linejoin="round" stroke-miterlimit="10" stroke-opacity=".6" stroke-width=".799344" d="M46.91 425.762h801.496"/></g><path fill="none" stroke="#000" stroke-linejoin="round" stroke-miterlimit="10" stroke-width=".799344" d="M46.91 425.762h-3.496"/><use xlink:href="#aD" x="27.209" y="429.557"/><use xlink:href="#j" x="33.564" y="429.557"/><g clip-path="url(#aQ)"><path fill="none" stroke="#b0b0b0" stroke-dasharray=".799344 1.3189176" stroke-linejoin="round" stroke-miterlimit="10" stroke-opacity=".6" stroke-width=".799344" d="M46.91 384.121h801.496"/></g><path fill="none" stroke="#000" stroke-linejoin="round" stroke-miterlimit="10" stroke-width=".799344" d="M46.91 384.121h-3.496"/><use xlink:href="#aR" x="27.209" y="387.913"/><use xlink:href="#j" x="33.564" y="387.913"/><use xlink:href="#aS" x="21.136" y="571.481"/><use xlink:href="#z" x="21.136" y="561.989"/><use xlink:href="#aT" x="21.136" y="558.811"/><use xlink:href="#aU" x="21.136" y="552.696"/><use xlink:href="#z" x="21.136" y="549.179"/><use xlink:href="#aV" x="21.136" y="546.002"/><use xlink:href="#aT" x="21.136" y="540.32"/><use xlink:href="#aW" x="21.136" y="534.205"/><use xlink:href="#aX" x="21.136" y="527.86"/><use xlink:href="#x" x="21.136" y="521.526"/><use xlink:href="#v" x="21.136" y="518.748"/><use xlink:href="#B" x="21.136" y="512.623"/><use xlink:href="#w" x="21.136" y="508.706"/><use xlink:href="#aT" x="21.136" y="505.928"/><use xlink:href="#aY" x="21.136" y="499.813"/><use xlink:href="#z" x="21.136" y="493.478"/><use xlink:href="#w" x="21.136" y="490.301"/><use xlink:href="#aY" x="21.136" y="487.523"/><use xlink:href="#z" x="21.136" y="481.188"/><use xlink:href="#aZ" x="21.136" y="478.011"/><use xlink:href="#ba" x="21.136" y="471.666"/><path fill="none" stroke="#000" stroke-dasharray="5.545449 2.3980319999999997" stroke-linejoin="round" stroke-miterlimit="10" stroke-width="1.49877" d="m83.344 659.691 5.972-15.328 5.973-14.742 5.973-14.176 5.972-13.632 5.973-13.114 5.969-12.61 5.972-12.128 5.973-11.664 5.973-11.215 5.972-10.785 5.973-10.367 5.973-9.969 5.972-9.582 5.973-9.203 5.973-8.836 5.972-8.473 5.973-8.11 5.973-7.745 5.972-7.36 5.973-6.957 5.969-6.511 5.972-6.012 5.973-5.43 5.973-4.754 5.972-3.957 5.973-3.035 5.973-1.996 5.972-.871 5.973.293 5.973 1.41 5.972 2.422 5.973 3.258 5.973 3.906 5.972 4.352 5.969 4.625 5.973 4.753 5.972 4.77 5.973 4.711 5.973 4.59 5.972 4.433 5.973 4.258 5.973 4.07 5.972 3.876 5.973 3.683 5.972 3.492 5.973 3.313 5.973 3.129 5.972 2.96 5.973 2.798 5.969 2.64 5.973 2.496 5.972 2.352 5.973 2.222 5.972 2.098 5.973 1.977 5.973 1.867 5.972 1.762 5.973 1.66 5.973 1.566 5.972 1.477 5.973 1.394 5.973 1.317 5.972 1.242 5.973 1.168 5.969 1.105 5.972 1.04 5.973.984 5.973.925 5.972.872 5.973.828 5.973.777 5.972.734 5.973.692 5.973.652 5.972.617 5.973.582 5.973.547 5.972.52 5.969.488 5.973.461 5.972.438 5.973.41 5.973.386 5.972.368 5.973.343 5.973.325 5.972.308 5.973.29 5.973.273 5.972.261 5.973.243 5.973.23 5.972.219 5.969.203 5.973.195 5.972.184 5.973.172 5.973.164 5.972.152 5.973.145 5.973.136 5.972.13 5.973.124 5.973.114 5.972.109 5.973.101 5.972.098 5.973.094 5.969.086 5.973.082 11.945.148 5.973.07 11.945.126 5.972.058 5.973.055 5.973.05 11.945.094 11.945.086"/><path fill="none" stroke="#ff1493" stroke-linecap="square" stroke-linejoin="round" stroke-miterlimit="10" stroke-width="1.49877" d="m83.344 644.066 5.972-14.984 5.973-14.371 5.973-13.785 5.972-13.223 5.973-12.687 5.969-12.168 5.972-11.676 5.973-11.2 5.973-10.738 5.972-10.3 5.973-9.868 5.973-9.449 5.972-9.039 5.973-8.633 5.973-8.226 5.972-7.805 5.973-7.379 5.973-6.922 5.972-6.437 5.973-5.914 5.969-5.34 5.972-4.711 5.973-4.027 5.973-3.293 5.972-2.512 5.973-1.7 5.973-.878 5.972-.07 5.973.703 5.973 1.414 5.972 2.05 5.973 2.598 5.973 3.047 5.972 3.398 5.969 3.657 5.973 3.828 5.972 3.926 5.973 3.957 5.973 3.941 5.972 3.883 5.973 3.789 5.973 3.68 5.972 3.546 5.973 3.41 5.972 3.266 5.973 3.117 5.973 2.97 5.972 2.823 5.973 2.68 5.969 2.543 5.973 2.41 5.972 2.281 5.973 2.165 5.972 2.043 5.973 1.93 5.973 1.827 5.972 1.727 5.973 1.633 5.973 1.543 5.972 1.453 5.973 1.379 5.973 1.297 5.972 1.23 5.973 1.156 5.969 1.098 5.972 1.031 5.973.977 5.973.922 5.972.87 5.973.825 5.973.777 5.972.735 5.973.691 5.973.656 5.972.618 5.973.585 5.973.551 5.972.52 5.969.492 5.973.465 5.972.441 5.973.414 5.973.395 5.972.367 5.973.352 5.973.332 5.972.312 5.973.293 5.973.281 5.972.262 5.973.25 5.973.234 5.972.223 5.969.211 5.973.2 5.972.187 5.973.18 5.973.167 5.972.157 5.973.152 5.973.14 5.972.133 5.973.13 5.973.116 5.972.114 5.973.11 5.972.1 5.973.094 5.969.09 5.973.086 5.972.082 11.946.149 11.945.133 5.972.062 17.918.164 11.946.094 5.972.043"/><path fill="none" stroke="#000" stroke-linecap="square" stroke-miterlimit="10" stroke-width=".799344" d="M46.91 673.82V362.965M848.406 673.82V362.965M46.91 673.82h801.496M46.91 362.965h801.496"/><use xlink:href="#E" x="294.862" y="356.968"/><use xlink:href="#F" x="301.561" y="356.968"/><use xlink:href="#G" x="308.911" y="356.968"/><use xlink:href="#F" x="313.839" y="356.968"/><use xlink:href="#H" x="321.189" y="356.968"/><use xlink:href="#I" x="332.868" y="356.968"/><use xlink:href="#J" x="340.242" y="356.968"/><use xlink:href="#I" x="344.942" y="356.968"/><use xlink:href="#G" x="352.316" y="356.968"/><use xlink:href="#K" x="357.244" y="356.968"/><use xlink:href="#L" x="361.057" y="356.968"/><use xlink:href="#I" x="368.859" y="356.968"/><use xlink:href="#M" x="376.233" y="356.968"/><use xlink:href="#N" x="382.828" y="356.968"/><use xlink:href="#O" x="390.166" y="356.968"/><use xlink:href="#I" x="397.264" y="356.968"/><use xlink:href="#G" x="404.638" y="356.968"/><use xlink:href="#P" x="409.566" y="356.968"/><use xlink:href="#K" x="416.664" y="356.968"/><use xlink:href="#Q" x="420.477" y="356.968"/><use xlink:href="#R" x="426.513" y="356.968"/><use xlink:href="#J" x="429.846" y="356.968"/><use xlink:href="#K" x="434.546" y="356.968"/><use xlink:href="#J" x="438.359" y="356.968"/><use xlink:href="#N" x="443.059" y="356.968"/><use xlink:href="#K" x="450.397" y="356.968"/><use xlink:href="#S" x="454.21" y="356.968"/><use xlink:href="#P" x="461.824" y="356.968"/><use xlink:href="#T" x="468.922" y="356.968"/><use xlink:href="#J" x="476.524" y="356.968"/><use xlink:href="#U" x="481.224" y="356.968"/><use xlink:href="#I" x="488.826" y="356.968"/><use xlink:href="#J" x="496.2" y="356.968"/><use xlink:href="#R" x="500.9" y="356.968"/><use xlink:href="#M" x="504.233" y="356.968"/><use xlink:href="#K" x="510.828" y="356.968"/><use xlink:href="#bb" x="514.641" y="356.968"/><use xlink:href="#I" x="522.866" y="356.968"/><use xlink:href="#U" x="530.24" y="356.968"/><use xlink:href="#F" x="537.842" y="356.968"/><use xlink:href="#O" x="545.192" y="356.968"/><use xlink:href="#R" x="552.29" y="356.968"/><use xlink:href="#N" x="555.623" y="356.968"/><use xlink:href="#G" x="562.961" y="356.968"/><use xlink:href="#K" x="567.889" y="356.968"/><use xlink:href="#X" x="571.702" y="356.968"/><use xlink:href="#F" x="580.934" y="356.968"/><use xlink:href="#J" x="588.284" y="356.968"/><use xlink:href="#F" x="592.985" y="356.968"/><path fill="#fff" fill-opacity=".8" d="M679.824 414.938h161.59q1.997-.001 1.996-2v-42.981q.001-1.997-1.996-1.996h-161.59q-1.997-.001-1.996 1.996v42.98q-.001 2 1.996 2m0 0"/><g clip-path="url(#bc)"><path fill="none" stroke="#ccc" stroke-miterlimit="10" stroke-opacity=".8" stroke-width=".99918" d="M679.824 414.938h161.59q1.997-.001 1.996-2v-42.98q.001-1.998-1.996-1.997h-161.59q-1.997-.001-1.996 1.996v42.98q-.001 2 1.996 2Zm0 0"/></g><path fill="none" stroke="#000" stroke-dasharray="5.545449 2.3980319999999997" stroke-linejoin="round" stroke-miterlimit="10" stroke-width="1.49877" d="M681.824 376.047h19.984"/><use xlink:href="#Z" x="709.801" y="379.544"/><use xlink:href="#aa" x="716.146" y="379.544"/><use xlink:href="#ab" x="722.061" y="379.544"/><use xlink:href="#ac" x="728.396" y="379.544"/><use xlink:href="#ad" x="732.313" y="379.544"/><use xlink:href="#ae" x="738.647" y="379.544"/><use xlink:href="#ac" x="744.792" y="379.544"/><use xlink:href="#af" x="748.709" y="379.544"/><use xlink:href="#ag" x="751.487" y="379.544"/><use xlink:href="#ah" x="756.982" y="379.544"/><use xlink:href="#ai" x="760.16" y="379.544"/><use xlink:href="#aj" x="767.854" y="379.544"/><use xlink:href="#ac" x="773.979" y="379.544"/><use xlink:href="#aj" x="777.895" y="379.544"/><use xlink:href="#ah" x="784.02" y="379.544"/><use xlink:href="#ak" x="787.198" y="379.544"/><use xlink:href="#bd" x="791.095" y="379.544"/><use xlink:href="#ae" x="797.949" y="379.544"/><use xlink:href="#ad" x="804.094" y="379.544"/><use xlink:href="#aj" x="810.429" y="379.544"/><use xlink:href="#ay" x="816.554" y="379.544"/><use xlink:href="#af" x="822.469" y="379.544"/><use xlink:href="#be" x="825.247" y="379.544"/><use xlink:href="#aq" x="831.362" y="379.544"/><use xlink:href="#am" x="835.468" y="379.544"/><path fill="none" stroke="#ff1493" stroke-linecap="square" stroke-linejoin="round" stroke-miterlimit="10" stroke-width="1.49877" d="M681.824 390.707h19.984"/><use xlink:href="#an" x="709.801" y="394.204"/><use xlink:href="#ae" x="718.424" y="394.204"/><use xlink:href="#aj" x="724.569" y="394.204"/><use xlink:href="#ab" x="730.694" y="394.204"/><use xlink:href="#ah" x="737.029" y="394.204"/><use xlink:href="#ao" x="740.206" y="394.204"/><use xlink:href="#ab" x="743.154" y="394.204"/><use xlink:href="#ap" x="749.489" y="394.204"/><use xlink:href="#ae" x="753.006" y="394.204"/><use xlink:href="#aq" x="759.151" y="394.204"/><use xlink:href="#aq" x="763.086" y="394.204"/><use xlink:href="#ae" x="766.974" y="394.204"/><use xlink:href="#ar" x="773.119" y="394.204"/><use xlink:href="#ah" x="779.463" y="394.204"/><use xlink:href="#as" x="782.641" y="394.204"/><use xlink:href="#af" x="787.668" y="394.204"/><use xlink:href="#ac" x="790.446" y="394.204"/><path fill="#ff1493" fill-opacity=".3" stroke="#ff1493" stroke-miterlimit="10" stroke-opacity=".3" stroke-width=".99918" d="M681.824 408.863h19.984v-6.992h-19.984Zm0 0"/><use xlink:href="#at" x="709.801" y="408.864"/><use xlink:href="#t" x="716.156" y="408.864"/><use xlink:href="#au" x="722.511" y="408.864"/><use xlink:href="#ah" x="732.003" y="408.864"/><use xlink:href="#av" x="735.18" y="408.864"/><use xlink:href="#aq" x="742.155" y="408.864"/><use xlink:href="#ae" x="746.043" y="408.864"/><use xlink:href="#ar" x="752.188" y="408.864"/><use xlink:href="#af" x="758.532" y="408.864"/><use xlink:href="#aw" x="761.31" y="408.864"/><use xlink:href="#ax" x="767.655" y="408.864"/><use xlink:href="#ae" x="770.433" y="408.864"/><use xlink:href="#ah" x="776.578" y="408.864"/><use xlink:href="#ao" x="779.755" y="408.864"/><use xlink:href="#ab" x="782.703" y="408.864"/><use xlink:href="#ac" x="789.037" y="408.864"/><use xlink:href="#ae" x="792.954" y="408.864"/><use xlink:href="#aq" x="799.099" y="408.864"/><use xlink:href="#ay" x="803.206" y="408.864"/><use xlink:href="#aj" x="809.121" y="408.864"/><use xlink:href="#ax" x="815.246" y="408.864"/></svg>