<svg xmlns="http://www.w3.org/2000/svg" viewBox="0 0 150 150">
  <style>
    .triangle {
      fill: rgba(79, 209, 197, 0.15);
    }
    .edge {
      stroke: #a0aec0;
      stroke-width: 4;
    }
    .node {
      fill: #4fd1c5;
      stroke: #2c7a7b;
      stroke-width: 2;
    }
  </style>
  
  <!-- Letters are arranged in a 2x2 grid and centered. -->

  <!-- Top-Left: S -->
  <g id="span-s" transform="translate(10, -2.5)">
    <polygon class="triangle" points="15,12 45,12 15,26"/>
    <polygon class="triangle" points="15,26 45,40 15,40"/>
    <polygon class="triangle" points="45,40 45,54 15,40"/>
    <polygon class="triangle" points="45,54 45,68 15,68"/>
    <line class="edge" x1="15" y1="12" x2="45" y2="12"/>
    <line class="edge" x1="15" y1="12" x2="15" y2="26"/>
    <line class="edge" x1="15" y1="26" x2="15" y2="40"/>
    <line class="edge" x1="15" y1="40" x2="45" y2="40"/>
    <line class="edge" x1="45" y1="40" x2="45" y2="54"/>
    <line class="edge" x1="45" y1="54" x2="45" y2="68"/>
    <line class="edge" x1="45" y1="68" x2="15" y2="68"/>
    <circle class="node" cx="15" cy="12" r="5"/>
    <circle class="node" cx="45" cy="12" r="5"/>
    <circle class="node" cx="15" cy="26" r="5"/>
    <circle class="node" cx="15" cy="40" r="5"/>
    <circle class="node" cx="45" cy="40" r="5"/>
    <circle class="node" cx="45" cy="54" r="5"/>
    <circle class="node" cx="45" cy="68" r="5"/>
    <circle class="node" cx="15" cy="68" r="5"/>
  </g>

  <!-- Top-Right: P (was widened) -->
  <g id="span-p" transform="translate(80, -2.5)">
    <polygon class="triangle" points="12,12 42,12 48,20 48,30 42,38 12,38"/>
    <line class="edge" x1="12" y1="12" x2="12" y2="68"/>
    <line class="edge" x1="12" y1="12" x2="42" y2="12"/>
    <line class="edge" x1="42" y1="12" x2="48" y2="20"/>
    <line class="edge" x1="48" y1="20" x2="48" y2="30"/>
    <line class="edge" x1="48" y1="30" x2="42" y2="38"/>
    <line class="edge" x1="42" y1="38" x2="12" y2="38"/>
    <circle class="node" cx="12" cy="12" r="5"/>
    <circle class="node" cx="42" cy="12" r="5"/>
    <circle class="node" cx="48" cy="20" r="5"/>
    <circle class="node" cx="48" cy="30" r="5"/>
    <circle class="node" cx="42" cy="38" r="5"/>
    <circle class="node" cx="12" cy="38" r="5"/>
    <circle class="node" cx="12" cy="68" r="5"/>
  </g>

  <!-- Bottom-Left: A -->
  <g id="span-a" transform="translate(10, 75)">
    <polygon class="triangle" points="30,12 22,42 38,42"/>
    <line class="edge" x1="30" y1="12" x2="22" y2="42"/>
    <line class="edge" x1="30" y1="12" x2="38" y2="42"/>
    <line class="edge" x1="22" y1="42" x2="12" y2="68"/>
    <line class="edge" x1="38" y1="42" x2="48" y2="68"/>
    <line class="edge" x1="22" y1="42" x2="38" y2="42"/>
    <circle class="node" cx="30" cy="12" r="5"/>
    <circle class="node" cx="22" cy="42" r="5"/>
    <circle class="node" cx="38" cy="42" r="5"/>
    <circle class="node" cx="12" cy="68" r="5"/>
    <circle class="node" cx="48" cy="68" r="5"/>
  </g>

  <!-- Bottom-Right: N -->
  <g id="span-n" transform="translate(80, 75)">
    <polygon class="triangle" points="12,12 30,25 48,68 30,55"/>
    <line class="edge" x1="12" y1="12" x2="12" y2="68"/>
    <line class="edge" x1="48" y1="12" x2="48" y2="68"/>
    <line class="edge" x1="30" y1="55" x2="12" y2="12"/>
    <line class="edge" x1="30" y1="25" x2="48" y2="68"/>
    <line class="edge" x1="30" y1="55" x2="48" y2="68"/>
    <line class="edge" x1="30" y1="25" x2="12" y2="12"/>
    <circle class="node" cx="12" cy="12" r="5"/>
    <circle class="node" cx="48" cy="12" r="5"/>
    <circle class="node" cx="12" cy="68" r="5"/>
    <circle class="node" cx="48" cy="68" r="5"/>
    <circle class="node" cx="30" cy="25" r="5"/>
    <circle class="node" cx="30" cy="55" r="5"/>
  </g>
</svg>